<svg xmlns="http://www.w3.org/2000/svg" xmlns:xlink="http://www.w3.org/1999/xlink" xmlns:lucid="lucid" width="1760" height="1360"><g transform="translate(0 0)" lucid:page-tab-id="HWEp-vi-RSFO"><path d="M0 0h1760v1360H0z" fill="#fff"/><path d="M638.92 68c0-4.42 3.6-8 8-8h463.47c4.4 0 8 3.58 8 8v25.16c0 4.4-3.6 8-8 8H646.9c-4.4 0-8-3.6-8-8z" stroke="#000" stroke-opacity="0" stroke-width="2" fill="#fff" fill-opacity="0"/><use xlink:href="#a" transform="matrix(1,0,0,1,642.9234120882143,64) translate(17.00382716049384 23.657777777777778)"/><use xlink:href="#b" transform="matrix(1,0,0,1,642.9234120882143,64) translate(207.33345679012345 23.657777777777778)"/><use xlink:href="#c" transform="matrix(1,0,0,1,642.9234120882143,64) translate(303.2630864197531 23.657777777777778)"/><use xlink:href="#d" transform="matrix(1,0,0,1,642.9234120882143,64) translate(405.0198765432099 23.657777777777778)"/><path d="M717.85 99.8h325.94M717.87 99.8h-1.02M1043.76 99.8h1.03" stroke="#b2b2b2" stroke-width="2" fill="none"/><path d="M638.92 109.16c0-4.42 3.6-8 8-8h464c4.42 0 8 3.58 8 8V112c0 4.42-3.58 8-8 8h-464c-4.4 0-8-3.58-8-8z" stroke="#000" stroke-opacity="0" stroke-width="2" fill="#fff" fill-opacity="0"/><use xlink:href="#e" transform="matrix(1,0,0,1,642.9234120882145,105.1552239567824) translate(132.3633950617284 14.917037037037037)"/><use xlink:href="#f" transform="matrix(1,0,0,1,642.9234120882145,105.1552239567824) translate(173.11102880658436 14.917037037037037)"/><use xlink:href="#g" transform="matrix(1,0,0,1,642.9234120882145,105.1552239567824) translate(248.10537037037037 14.917037037037037)"/><use xlink:href="#h" transform="matrix(1,0,0,1,642.9234120882145,105.1552239567824) translate(260.5548559670782 14.917037037037037)"/><use xlink:href="#i" transform="matrix(1,0,0,1,642.9234120882145,105.1552239567824) translate(295.26895061728396 14.917037037037037)"/><use xlink:href="#j" transform="matrix(1,0,0,1,642.9234120882145,105.1552239567824) translate(312.2648353909465 14.917037037037037)"/><path d="M690 767.64h400v493H690z" stroke="#333" stroke-width="2" fill="#fff"/><path d="M690 826.84h400m-400 173.6h400" stroke="#333" stroke-width="2" fill="none"/><use xlink:href="#k" transform="matrix(1,0,0,1,698,775.6361940108004) translate(160.025 14.799999999999999)"/><use xlink:href="#l" transform="matrix(1,0,0,1,698,775.6361940108004) translate(79.72500000000001 36.4)"/><use xlink:href="#m" transform="matrix(1,0,0,1,702,834.8361940108005) translate(0 28.6)"/><use xlink:href="#n" transform="matrix(1,0,0,1,702,834.8361940108005) translate(15.5 28.6)"/><use xlink:href="#o" transform="matrix(1,0,0,1,702,834.8361940108005) translate(125.35000000000001 28.6)"/><use xlink:href="#m" transform="matrix(1,0,0,1,702,834.8361940108005) translate(0 50.2)"/><use xlink:href="#p" transform="matrix(1,0,0,1,702,834.8361940108005) translate(15.5 50.2)"/><use xlink:href="#q" transform="matrix(1,0,0,1,702,834.8361940108005) translate(145.35 50.2)"/><use xlink:href="#m" transform="matrix(1,0,0,1,702,834.8361940108005) translate(0 71.80000000000001)"/><use xlink:href="#r" transform="matrix(1,0,0,1,702,834.8361940108005) translate(15.5 71.80000000000001)"/><use xlink:href="#s" transform="matrix(1,0,0,1,702,834.8361940108005) translate(0 93.40000000000002)"/><use xlink:href="#t" transform="matrix(1,0,0,1,702,834.8361940108005) translate(35 93.40000000000002)"/><use xlink:href="#m" transform="matrix(1,0,0,1,702,834.8361940108005) translate(0 115.00000000000001)"/><use xlink:href="#p" transform="matrix(1,0,0,1,702,834.8361940108005) translate(15.5 115.00000000000001)"/><use xlink:href="#q" transform="matrix(1,0,0,1,702,834.8361940108005) translate(145.35 115.00000000000001)"/><use xlink:href="#u" transform="matrix(1,0,0,1,702,834.8361940108005) translate(0 136.6)"/><use xlink:href="#m" transform="matrix(1,0,0,1,702,1008.4361940108005) translate(0 28.400000000000013)"/><use xlink:href="#v" transform="matrix(1,0,0,1,702,1008.4361940108005) translate(15.5 28.400000000000013)"/><use xlink:href="#w" transform="matrix(1,0,0,1,702,1008.4361940108005) translate(95.30000000000001 28.400000000000013)"/><use xlink:href="#m" transform="matrix(1,0,0,1,702,1008.4361940108005) translate(0 50.000000000000014)"/><use xlink:href="#x" transform="matrix(1,0,0,1,702,1008.4361940108005) translate(15.5 50.000000000000014)"/><use xlink:href="#w" transform="matrix(1,0,0,1,702,1008.4361940108005) translate(108.30000000000001 50.000000000000014)"/><use xlink:href="#m" transform="matrix(1,0,0,1,702,1008.4361940108005) translate(0 71.60000000000002)"/><use xlink:href="#y" transform="matrix(1,0,0,1,702,1008.4361940108005) translate(15.5 71.60000000000002)"/><use xlink:href="#w" transform="matrix(1,0,0,1,702,1008.4361940108005) translate(102.25 71.60000000000002)"/><use xlink:href="#m" transform="matrix(1,0,0,1,702,1008.4361940108005) translate(0 93.20000000000003)"/><use xlink:href="#z" transform="matrix(1,0,0,1,702,1008.4361940108005) translate(15.5 93.20000000000003)"/><use xlink:href="#w" transform="matrix(1,0,0,1,702,1008.4361940108005) translate(122.25 93.20000000000003)"/><use xlink:href="#m" transform="matrix(1,0,0,1,702,1008.4361940108005) translate(0 114.80000000000003)"/><use xlink:href="#A" transform="matrix(1,0,0,1,702,1008.4361940108005) translate(15.5 114.80000000000003)"/><use xlink:href="#w" transform="matrix(1,0,0,1,702,1008.4361940108005) translate(135.25 114.80000000000003)"/><use xlink:href="#B" transform="matrix(1,0,0,1,702,1008.4361940108005) translate(0 136.4)"/><use xlink:href="#C" transform="matrix(1,0,0,1,702,1008.4361940108005) translate(0 158.00000000000003)"/><use xlink:href="#D" transform="matrix(1,0,0,1,702,1008.4361940108005) translate(10.95 158.00000000000003)"/><use xlink:href="#w" transform="matrix(1,0,0,1,702,1008.4361940108005) translate(203.64999999999998 158.00000000000003)"/><use xlink:href="#C" transform="matrix(1,0,0,1,702,1008.4361940108005) translate(0 179.6)"/><use xlink:href="#E" transform="matrix(1,0,0,1,702,1008.4361940108005) translate(10.95 179.6)"/><use xlink:href="#w" transform="matrix(1,0,0,1,702,1008.4361940108005) translate(286.59999999999997 179.6)"/><use xlink:href="#C" transform="matrix(1,0,0,1,702,1008.4361940108005) translate(0 201.20000000000002)"/><use xlink:href="#F" transform="matrix(1,0,0,1,702,1008.4361940108005) translate(10.95 201.20000000000002)"/><use xlink:href="#w" transform="matrix(1,0,0,1,702,1008.4361940108005) translate(278.65 201.20000000000002)"/><use xlink:href="#C" transform="matrix(1,0,0,1,702,1008.4361940108005) translate(0 222.79999999999998)"/><use xlink:href="#G" transform="matrix(1,0,0,1,702,1008.4361940108005) translate(10.95 222.79999999999998)"/><use xlink:href="#H" transform="matrix(1,0,0,1,702,1008.4361940108005) translate(222.59999999999997 222.79999999999998)"/><path d="M690 427.64h400v198H690z" stroke="#333" stroke-width="2" fill="#fff"/><path d="M690 465.24h400" stroke="#333" stroke-width="2" fill="none"/><g><use xlink:href="#I" transform="matrix(1,0,0,1,698,435.63619401080064) translate(133.375 14.6)"/></g><g><use xlink:href="#m" transform="matrix(1,0,0,1,702,473.23619401080066) translate(0 65.3)"/><use xlink:href="#v" transform="matrix(1,0,0,1,702,473.23619401080066) translate(15.5 65.3)"/><use xlink:href="#w" transform="matrix(1,0,0,1,702,473.23619401080066) translate(95.30000000000001 65.3)"/><use xlink:href="#m" transform="matrix(1,0,0,1,702,473.23619401080066) translate(0 86.9)"/><use xlink:href="#x" transform="matrix(1,0,0,1,702,473.23619401080066) translate(15.5 86.9)"/><use xlink:href="#H" transform="matrix(1,0,0,1,702,473.23619401080066) translate(108.30000000000001 86.9)"/></g><path d="M190 406.14h400v241H190z" stroke="#333" stroke-width="2" fill="#fff"/><path d="M190 443.74h400" stroke="#333" stroke-width="2" fill="none"/><g><use xlink:href="#J" transform="matrix(1,0,0,1,198,414.13619401080064) translate(102.2 14.6)"/></g><g><use xlink:href="#K" transform="matrix(1,0,0,1,202,451.73619401080066) translate(0 65.19999999999999)"/><use xlink:href="#w" transform="matrix(1,0,0,1,202,451.73619401080066) translate(96.15 65.19999999999999)"/><use xlink:href="#C" transform="matrix(1,0,0,1,202,451.73619401080066) translate(0 86.8)"/><use xlink:href="#L" transform="matrix(1,0,0,1,202,451.73619401080066) translate(10.95 86.8)"/><use xlink:href="#w" transform="matrix(1,0,0,1,202,451.73619401080066) translate(95.85000000000001 86.8)"/><use xlink:href="#C" transform="matrix(1,0,0,1,202,451.73619401080066) translate(0 108.4)"/><use xlink:href="#M" transform="matrix(1,0,0,1,202,451.73619401080066) translate(10.95 108.4)"/><use xlink:href="#N" transform="matrix(1,0,0,1,202,451.73619401080066) translate(120.70000000000002 108.4)"/><use xlink:href="#C" transform="matrix(1,0,0,1,202,451.73619401080066) translate(0 130)"/><use xlink:href="#O" transform="matrix(1,0,0,1,202,451.73619401080066) translate(10.95 130)"/><use xlink:href="#H" transform="matrix(1,0,0,1,202,451.73619401080066) translate(321.3499999999999 130)"/></g><path d="M890 764.64V654.08" stroke="#333" stroke-width="4" fill="none"/><path d="M892 766.64h-4v-2.06h4z" fill="#333"/><path d="M890 630.57l12.73 21.5h-25.46z" stroke="#333" stroke-width="4" fill="#fff"/><path d="M230 166.14h320v121H230z" stroke="#333" stroke-width="2" fill="#fff"/><g><use xlink:href="#P" transform="matrix(1,0,0,1,237.99999999999991,174.13619401080064) translate(28.850000000000023 56.1)"/></g><path d="M390 289.64v94.88" stroke="#333" stroke-width="3" fill="none"/><path d="M391.5 289.67h-3v-1.53h3z" fill="#333"/><path d="M390 400.28l-4.64-14.26h9.28z" stroke="#333" stroke-width="3" fill="#333"/><path d="M592.5 526.64h75.88" stroke="#333" stroke-width="3" fill="none"/><path d="M592.54 528.14H591v-3h1.54z" fill="#333"/><path d="M684.15 526.64l-14.27 4.63V522z" stroke="#333" stroke-width="3" fill="#333"/><path d="M1210 438.64h360v176h-360z" stroke="#333" stroke-width="2" fill="#fff"/><path d="M1210 476.24h360" stroke="#333" stroke-width="2" fill="none"/><g><use xlink:href="#Q" transform="matrix(1,0,0,1,1218,446.63619401080064) translate(97.575 14.6)"/></g><g><use xlink:href="#R" transform="matrix(1,0,0,1,1222,484.23619401080066) translate(0 65.10000000000001)"/><use xlink:href="#H" transform="matrix(1,0,0,1,1222,484.23619401080066) translate(161.09999999999997 65.10000000000001)"/></g><path d="M1091.5 526.64h101.12" stroke="#333" fill="none"/><path d="M1091.5 527.14h-.5v-1h.5z" fill="#333"/><path d="M1207.38 526.64l-14.26 4.63V522z" stroke="#333" fill="#333"/><path d="M1210 677.26h360v198h-360z" stroke="#333" stroke-width="2" fill="#fff"/><path d="M1210 714.86h360" stroke="#333" stroke-width="2" fill="none"/><g><use xlink:href="#S" transform="matrix(1,0,0,1,1218,685.2585782052502) translate(75.775 14.6)"/></g><g><use xlink:href="#m" transform="matrix(1,0,0,1,1222,722.8585782052502) translate(0 65.3)"/><use xlink:href="#T" transform="matrix(1,0,0,1,1222,722.8585782052502) translate(15.5 65.3)"/><use xlink:href="#w" transform="matrix(1,0,0,1,1222,722.8585782052502) translate(231.99999999999997 65.3)"/><use xlink:href="#m" transform="matrix(1,0,0,1,1222,722.8585782052502) translate(0 86.9)"/><use xlink:href="#U" transform="matrix(1,0,0,1,1222,722.8585782052502) translate(15.5 86.9)"/><use xlink:href="#V" transform="matrix(1,0,0,1,1222,722.8585782052502) translate(186.95 86.9)"/></g><path d="M1091.5 526.64h46.5c6.63 0 12 5.37 12 12v225.62c0 6.63 5.37 12 12 12h30.62" stroke="#333" fill="none"/><path d="M1091.5 527.14h-.5v-1h.5z" fill="#333"/><path d="M1207.38 776.26l-14.26 4.63v-9.28z" stroke="#333" fill="#333"/><path d="M1210 937.88h360v176h-360z" stroke="#333" stroke-width="2" fill="#fff"/><path d="M1210 975.48h360" stroke="#333" stroke-width="2" fill="none"/><g><use xlink:href="#W" transform="matrix(1,0,0,1,1218,945.8809623996997) translate(108.275 14.6)"/></g><g><use xlink:href="#m" transform="matrix(1,0,0,1,1222,983.4809623996997) translate(0 65.10000000000001)"/><use xlink:href="#X" transform="matrix(1,0,0,1,1222,983.4809623996997) translate(15.5 65.10000000000001)"/><use xlink:href="#Y" transform="matrix(1,0,0,1,1222,983.4809623996997) translate(129.95 65.10000000000001)"/></g><path d="M1390 876.76v43.74" stroke="#333" fill="none"/><path d="M1390.5 876.77h-1v-.5h1z" fill="#333"/><path d="M1390 935.26l-4.64-14.26h9.28z" stroke="#333" fill="#333"/><path d="M690 160h373.35l26.65 26.65v106.62H690z" stroke="#333" stroke-width="2" fill="#fff"/><path d="M1063.35 160.95v25.7h25.7" stroke="#333" stroke-width="2" fill="#fff"/><g><use xlink:href="#Z" transform="matrix(1,0,0,1,695,165) translate(0 22.39999999999999)"/><use xlink:href="#aa" transform="matrix(1,0,0,1,695,165) translate(35.95 22.39999999999999)"/><use xlink:href="#ab" transform="matrix(1,0,0,1,695,165) translate(271.04999999999995 22.39999999999999)"/><use xlink:href="#ac" transform="matrix(1,0,0,1,695,165) translate(0 43.99999999999999)"/><use xlink:href="#ad" transform="matrix(1,0,0,1,695,165) translate(114.55000000000001 43.99999999999999)"/><use xlink:href="#ae" transform="matrix(1,0,0,1,695,165) translate(139.55 43.99999999999999)"/><use xlink:href="#af" transform="matrix(1,0,0,1,695,165) translate(169.55 43.99999999999999)"/><use xlink:href="#ag" transform="matrix(1,0,0,1,695,165) translate(213.55 43.99999999999999)"/><use xlink:href="#ah" transform="matrix(1,0,0,1,695,165) translate(228.55 43.99999999999999)"/><use xlink:href="#ai" transform="matrix(1,0,0,1,695,165) translate(295.40000000000003 43.99999999999999)"/><use xlink:href="#aj" transform="matrix(1,0,0,1,695,165) translate(334.3 43.99999999999999)"/><use xlink:href="#ak" transform="matrix(1,0,0,1,695,165) translate(366.2 43.99999999999999)"/><use xlink:href="#al" transform="matrix(1,0,0,1,695,165) translate(0 65.6)"/><use xlink:href="#am" transform="matrix(1,0,0,1,695,165) translate(44 65.6)"/><use xlink:href="#an" transform="matrix(1,0,0,1,695,165) translate(93.95 65.6)"/><use xlink:href="#ao" transform="matrix(1,0,0,1,695,165) translate(129.9 65.6)"/><use xlink:href="#ap" transform="matrix(1,0,0,1,695,165) translate(188.85000000000002 65.6)"/><use xlink:href="#aq" transform="matrix(1,0,0,1,695,165) translate(218.65000000000003 65.6)"/><use xlink:href="#ar" transform="matrix(1,0,0,1,695,165) translate(250.55000000000004 65.6)"/><use xlink:href="#as" transform="matrix(1,0,0,1,695,165) translate(275.55000000000007 65.6)"/><use xlink:href="#at" transform="matrix(1,0,0,1,695,165) translate(347.50000000000006 65.6)"/><use xlink:href="#au" transform="matrix(1,0,0,1,695,165) translate(0 87.20000000000002)"/><use xlink:href="#ac" transform="matrix(1,0,0,1,695,165) translate(30 87.20000000000002)"/><use xlink:href="#av" transform="matrix(1,0,0,1,695,165) translate(144.55 87.20000000000002)"/><use xlink:href="#aw" transform="matrix(1,0,0,1,695,165) translate(198.55 87.20000000000002)"/><use xlink:href="#au" transform="matrix(1,0,0,1,695,165) translate(223.55 87.20000000000002)"/><use xlink:href="#ax" transform="matrix(1,0,0,1,695,165) translate(253.55 87.20000000000002)"/><use xlink:href="#ay" transform="matrix(1,0,0,1,695,165) translate(292.55 87.20000000000002)"/><use xlink:href="#az" transform="matrix(1,0,0,1,695,165) translate(331.55 87.20000000000002)"/><use xlink:href="#aA" transform="matrix(1,0,0,1,695,165) translate(351.55 87.20000000000002)"/><use xlink:href="#aB" transform="matrix(1,0,0,1,695,165) translate(0 108.80000000000001)"/></g><path d="M668.26 226.64c0 1.1-.9 2-2 2s-2-.9-2-2 .9-2 2-2 2 .9 2 2zm-8.1 0c0 1.1-.88 2-2 2-1.1 0-2-.9-2-2s.9-2 2-2c1.12 0 2 .9 2 2zm-8.08 0c0 1.1-.9 2-2 2s-2-.9-2-2 .9-2 2-2 2 .9 2 2zm-8.1 0c0 1.1-.88 2-2 2-1.1 0-2-.9-2-2s.9-2 2-2c1.12 0 2 .9 2 2zm-8.08 0c0 1.1-.9 2-2 2s-2-.9-2-2 .9-2 2-2 2 .9 2 2zm-8.1 0c0 1.1-.88 2-2 2-1.1 0-2-.9-2-2s.9-2 2-2c1.12 0 2 .9 2 2zm-8.08 0c0 1.1-.9 2-2 2s-2-.9-2-2 .9-2 2-2 2 .9 2 2zm-8.1 0c0 1.1-.88 2-2 2-1.1 0-2-.9-2-2s.9-2 2-2c1.12 0 2 .9 2 2zm-8.08 0c0 1.1-.9 2-2 2s-2-.9-2-2 .9-2 2-2 2 .9 2 2zm-8.1 0c0 1.1-.88 2-2 2-1.1 0-2-.9-2-2s.9-2 2-2c1.12 0 2 .9 2 2zm-8.08 0c0 1.1-.9 2-2 2s-2-.9-2-2 .9-2 2-2 2 .9 2 2zm-8.1 0c0 1.1-.88 2-2 2-1.1 0-2-.9-2-2s.9-2 2-2c1.12 0 2 .9 2 2zm-8.08 0c0 1.1-.9 2-2 2s-2-.9-2-2 .9-2 2-2 2 .9 2 2zm-8.1 0c0 1.1-.9 2-2 2s-2-.9-2-2 .9-2 2-2 2 .9 2 2zm-8.08 0c0 1.1-.9 2-2 2s-2-.9-2-2 .9-2 2-2 2 .9 2 2z" fill="#333"/><path d="M682.53 226.64l-14.27 4.63V222z" stroke="#333" stroke-width="4" fill="#333"/><path d="M553.05 228.64H551v-4h2.05z" fill="#333"/><path d="M890 295.27v2.1m0 8.35v4.18m0 8.36v4.18m0 8.36v4.18m0 8.36v4.18m0 8.36v4.18m0 8.36v4.18m0 8.36v4.18m0 8.36v4.18m0 8.36v2.1" stroke="#333" stroke-width="2" fill="none"/><path d="M891 295.3h-2v-1.03h2z" fill="#333"/><path d="M890 423.4l-4.64-14.27h9.28z" stroke="#333" stroke-width="2" fill="#333"/><defs><path fill="#b2b2b2" d="M199 0l-22-63H83L61 0H9l90-248h61L250 0h-51zm-33-102l-36-108c-10 38-24 72-36 108h72" id="aC"/><path fill="#b2b2b2" d="M137-138c1-29-70-34-71-4 15 46 118 7 119 86 1 83-164 76-172 9l43-7c4 19 20 25 44 25 33 8 57-30 24-41C81-84 22-81 20-136c-2-80 154-74 161-7" id="aD"/><path fill="#b2b2b2" d="M123 10C108 53 80 86 19 72V37c35 8 53-11 59-39L3-190h52l48 148c12-52 28-100 44-148h51" id="aE"/><path fill="#b2b2b2" d="M135-194c87-1 58 113 63 194h-50c-7-57 23-157-34-157-59 0-34 97-39 157H25l-1-190h47c2 12-1 28 3 38 12-26 28-41 61-42" id="aF"/><path fill="#b2b2b2" d="M190-63c-7 42-38 67-86 67-59 0-84-38-90-98-12-110 154-137 174-36l-49 2c-2-19-15-32-35-32-30 0-35 28-38 64-6 74 65 87 74 30" id="aG"/><path fill="#b2b2b2" d="M114-157C55-157 80-60 75 0H25v-261h50l-1 109c12-26 28-41 61-42 86-1 58 113 63 194h-50c-7-57 23-157-34-157" id="aH"/><path fill="#b2b2b2" d="M135-150c-39-12-60 13-60 57V0H25l-1-190h47c2 13-1 29 3 40 6-28 27-53 61-41v41" id="aI"/><path fill="#b2b2b2" d="M110-194c64 0 96 36 96 99 0 64-35 99-97 99-61 0-95-36-95-99 0-62 34-99 96-99zm-1 164c35 0 45-28 45-65 0-40-10-65-43-65-34 0-45 26-45 65 0 36 10 65 43 65" id="aJ"/><path fill="#b2b2b2" d="M85 4C-2 5 27-109 22-190h50c7 57-23 150 33 157 60-5 35-97 40-157h50l1 190h-47c-2-12 1-28-3-38-12 25-28 42-61 42" id="aK"/><g id="a"><use transform="matrix(0.0728395061728395,0,0,0.0728395061728395,0,0)" xlink:href="#aC"/><use transform="matrix(0.0728395061728395,0,0,0.0728395061728395,18.86543209876543,0)" xlink:href="#aD"/><use transform="matrix(0.0728395061728395,0,0,0.0728395061728395,33.43333333333333,0)" xlink:href="#aE"/><use transform="matrix(0.0728395061728395,0,0,0.0728395061728395,48.00123456790123,0)" xlink:href="#aF"/><use transform="matrix(0.0728395061728395,0,0,0.0728395061728395,63.95308641975308,0)" xlink:href="#aG"/><use transform="matrix(0.0728395061728395,0,0,0.0728395061728395,78.52098765432098,0)" xlink:href="#aH"/><use transform="matrix(0.0728395061728395,0,0,0.0728395061728395,94.47283950617283,0)" xlink:href="#aI"/><use transform="matrix(0.0728395061728395,0,0,0.0728395061728395,104.67037037037036,0)" xlink:href="#aJ"/><use transform="matrix(0.0728395061728395,0,0,0.0728395061728395,120.62222222222222,0)" xlink:href="#aF"/><use transform="matrix(0.0728395061728395,0,0,0.0728395061728395,136.57407407407408,0)" xlink:href="#aJ"/><use transform="matrix(0.0728395061728395,0,0,0.0728395061728395,152.52592592592592,0)" xlink:href="#aK"/><use transform="matrix(0.0728395061728395,0,0,0.0728395061728395,168.4777777777778,0)" xlink:href="#aD"/></g><path fill="#b2b2b2" d="M136-208V0H84v-208H4v-40h212v40h-80" id="aL"/><path fill="#b2b2b2" d="M25-224v-37h50v37H25zM25 0v-190h50V0H25" id="aM"/><path fill="#b2b2b2" d="M195-6C206 82 75 100 31 46c-4-6-6-13-8-21l49-6c3 16 16 24 34 25 40 0 42-37 40-79-11 22-30 35-61 35-53 0-70-43-70-97 0-56 18-96 73-97 30 0 46 14 59 34l2-30h47zm-90-29c32 0 41-27 41-63 0-35-9-62-40-62-32 0-39 29-40 63 0 36 9 62 39 62" id="aN"/><path fill="#b2b2b2" d="M185-48c-13 30-37 53-82 52C43 2 14-33 14-96s30-98 90-98c62 0 83 45 84 108H66c0 31 8 55 39 56 18 0 30-7 34-22zm-45-69c5-46-57-63-70-21-2 6-4 13-4 21h74" id="aO"/><g id="b"><use transform="matrix(0.0728395061728395,0,0,0.0728395061728395,0,0)" xlink:href="#aL"/><use transform="matrix(0.0728395061728395,0,0,0.0728395061728395,14.495061728395061,0)" xlink:href="#aI"/><use transform="matrix(0.0728395061728395,0,0,0.0728395061728395,24.69259259259259,0)" xlink:href="#aM"/><use transform="matrix(0.0728395061728395,0,0,0.0728395061728395,31.97654320987654,0)" xlink:href="#aN"/><use transform="matrix(0.0728395061728395,0,0,0.0728395061728395,47.92839506172839,0)" xlink:href="#aN"/><use transform="matrix(0.0728395061728395,0,0,0.0728395061728395,63.88024691358024,0)" xlink:href="#aO"/><use transform="matrix(0.0728395061728395,0,0,0.0728395061728395,78.44814814814814,0)" xlink:href="#aI"/></g><path fill="#b2b2b2" d="M76-208v77h127v40H76V0H24v-248h183v40H76" id="aP"/><path fill="#b2b2b2" d="M133-34C117-15 103 5 69 4 32 3 11-16 11-54c-1-60 55-63 116-61 1-26-3-47-28-47-18 1-26 9-28 27l-52-2c7-38 36-58 82-57s74 22 75 68l1 82c-1 14 12 18 25 15v27c-30 8-71 5-69-32zm-48 3c29 0 43-24 42-57-32 0-66-3-65 30 0 17 8 27 23 27" id="aQ"/><path fill="#b2b2b2" d="M115-3C79 11 28 4 28-45v-112H4v-33h27l15-45h31v45h36v33H77v99c-1 23 16 31 38 25v30" id="aR"/><g id="c"><use transform="matrix(0.0728395061728395,0,0,0.0728395061728395,0,0)" xlink:href="#aP"/><use transform="matrix(0.0728395061728395,0,0,0.0728395061728395,15.95185185185185,0)" xlink:href="#aQ"/><use transform="matrix(0.0728395061728395,0,0,0.0728395061728395,30.51975308641975,0)" xlink:href="#aG"/><use transform="matrix(0.0728395061728395,0,0,0.0728395061728395,45.08765432098765,0)" xlink:href="#aR"/><use transform="matrix(0.0728395061728395,0,0,0.0728395061728395,53.75555555555555,0)" xlink:href="#aJ"/><use transform="matrix(0.0728395061728395,0,0,0.0728395061728395,69.7074074074074,0)" xlink:href="#aI"/><use transform="matrix(0.0728395061728395,0,0,0.0728395061728395,79.90493827160493,0)" xlink:href="#aE"/></g><path fill="#b2b2b2" d="M238-95c0 69-44 99-111 99C63 4 22-25 22-93v-155h51v151c-1 38 19 59 55 60 90 1 49-130 58-211h52v153" id="aS"/><path fill="#b2b2b2" d="M230 0l2-204L168 0h-37L68-204 70 0H24v-248h70l56 185 57-185h69V0h-46" id="aT"/><path fill="#b2b2b2" d="M24 0v-248h52v208h133V0H24" id="aU"/><g id="d"><use transform="matrix(0.0728395061728395,0,0,0.0728395061728395,0,0)" xlink:href="#aS"/><use transform="matrix(0.0728395061728395,0,0,0.0728395061728395,18.86543209876543,0)" xlink:href="#aT"/><use transform="matrix(0.0728395061728395,0,0,0.0728395061728395,40.644444444444446,0)" xlink:href="#aU"/></g><path fill="#b2b2b2" d="M30-248c87 1 191-15 191 75 0 78-77 80-158 76V0H30v-248zm33 125c57 0 124 11 124-50 0-59-68-47-124-48v98" id="aV"/><path fill="#b2b2b2" d="M100-194c63 0 86 42 84 106H49c0 40 14 67 53 68 26 1 43-12 49-29l28 8c-11 28-37 45-77 45C44 4 14-33 15-96c1-61 26-98 85-98zm52 81c6-60-76-77-97-28-3 7-6 17-6 28h103" id="aW"/><path fill="#b2b2b2" d="M59-47c-2 24 18 29 38 22v24C64 9 27 4 27-40v-127H5v-23h24l9-43h21v43h35v23H59v120" id="aX"/><path fill="#b2b2b2" d="M114-163C36-179 61-72 57 0H25l-1-190h30c1 12-1 29 2 39 6-27 23-49 58-41v29" id="aY"/><g id="e"><use transform="matrix(0.04248971193415638,0,0,0.04248971193415638,0,0)" xlink:href="#aV"/><use transform="matrix(0.04248971193415638,0,0,0.04248971193415638,10.19753086419753,0)" xlink:href="#aW"/><use transform="matrix(0.04248971193415638,0,0,0.04248971193415638,18.695473251028805,0)" xlink:href="#aX"/><use transform="matrix(0.04248971193415638,0,0,0.04248971193415638,22.944444444444443,0)" xlink:href="#aW"/><use transform="matrix(0.04248971193415638,0,0,0.04248971193415638,31.44238683127572,0)" xlink:href="#aY"/></g><path fill="#b2b2b2" d="M140-251c81 0 123 46 123 126C263-46 219 4 140 4 59 4 17-45 17-125s42-126 123-126zm0 227c63 0 89-41 89-101s-29-99-89-99c-61 0-89 39-89 99S79-25 140-24" id="aZ"/><path fill="#b2b2b2" d="M47-170H22l-4-78h33" id="ba"/><path fill="#b2b2b2" d="M212-179c-10-28-35-45-73-45-59 0-87 40-87 99 0 60 29 101 89 101 43 0 62-24 78-52l27 14C228-24 195 4 139 4 59 4 22-46 18-125c-6-104 99-153 187-111 19 9 31 26 39 46" id="bb"/><path fill="#b2b2b2" d="M100-194c62-1 85 37 85 99 1 63-27 99-86 99S16-35 15-95c0-66 28-99 85-99zM99-20c44 1 53-31 53-75 0-43-8-75-51-75s-53 32-53 75 10 74 51 75" id="bc"/><path fill="#b2b2b2" d="M117-194c89-4 53 116 60 194h-32v-121c0-31-8-49-39-48C34-167 62-67 57 0H25l-1-190h30c1 10-1 24 2 32 11-22 29-35 61-36" id="bd"/><path fill="#b2b2b2" d="M24 0v-261h32V0H24" id="be"/><g id="f"><use transform="matrix(0.04248971193415638,0,0,0.04248971193415638,0,0)" xlink:href="#aZ"/><use transform="matrix(0.04248971193415638,0,0,0.04248971193415638,11.897119341563785,0)" xlink:href="#ba"/><use transform="matrix(0.04248971193415638,0,0,0.04248971193415638,14.786419753086419,0)" xlink:href="#bb"/><use transform="matrix(0.04248971193415638,0,0,0.04248971193415638,25.79125514403292,0)" xlink:href="#bc"/><use transform="matrix(0.04248971193415638,0,0,0.04248971193415638,34.28919753086419,0)" xlink:href="#bd"/><use transform="matrix(0.04248971193415638,0,0,0.04248971193415638,42.78713991769547,0)" xlink:href="#bd"/><use transform="matrix(0.04248971193415638,0,0,0.04248971193415638,51.285082304526746,0)" xlink:href="#aW"/><use transform="matrix(0.04248971193415638,0,0,0.04248971193415638,59.78302469135802,0)" xlink:href="#be"/><use transform="matrix(0.04248971193415638,0,0,0.04248971193415638,63.139711934156374,0)" xlink:href="#be"/></g><path fill="#b2b2b2" d="M32 76v-337h29V76H32" id="bf"/><use transform="matrix(0.04248971193415638,0,0,0.04248971193415638,0,0)" xlink:href="#bf" id="g"/><path fill="#b2b2b2" d="M205 0l-28-72H64L36 0H1l101-248h38L239 0h-34zm-38-99l-47-123c-12 45-31 82-46 123h93" id="bg"/><path fill="#b2b2b2" d="M115-194c55 1 70 41 70 98S169 2 115 4C84 4 66-9 55-30l1 105H24l-1-265h31l2 30c10-21 28-34 59-34zm-8 174c40 0 45-34 45-75s-6-73-45-74c-42 0-51 32-51 76 0 43 10 73 51 73" id="bh"/><path fill="#b2b2b2" d="M24-231v-30h32v30H24zM24 0v-190h32V0H24" id="bi"/><g id="h"><use transform="matrix(0.04248971193415638,0,0,0.04248971193415638,0,0)" xlink:href="#bg"/><use transform="matrix(0.04248971193415638,0,0,0.04248971193415638,10.19753086419753,0)" xlink:href="#bh"/><use transform="matrix(0.04248971193415638,0,0,0.04248971193415638,18.695473251028805,0)" xlink:href="#aY"/><use transform="matrix(0.04248971193415638,0,0,0.04248971193415638,23.751748971193415,0)" xlink:href="#bi"/><use transform="matrix(0.04248971193415638,0,0,0.04248971193415638,27.10843621399177,0)" xlink:href="#be"/></g><path fill="#b2b2b2" d="M110-160c48 1 74 30 74 79 0 53-28 85-80 85-65 0-83-55-86-122-5-90 50-162 133-122 14 7 22 21 27 39l-31 6c-5-40-67-38-82-6-9 19-15 44-15 74 11-20 30-34 60-33zm-7 138c34 0 49-23 49-58s-16-56-50-56c-29 0-50 16-49 49 1 36 15 65 50 65" id="bj"/><path fill="#b2b2b2" d="M68-38c1 34 0 65-14 84H32c9-13 17-26 17-46H33v-38h35" id="bk"/><g id="i"><use transform="matrix(0.04248971193415638,0,0,0.04248971193415638,0,0)" xlink:href="#bj"/><use transform="matrix(0.04248971193415638,0,0,0.04248971193415638,8.497942386831275,0)" xlink:href="#bk"/></g><path fill="#b2b2b2" d="M101-251c82-7 93 87 43 132L82-64C71-53 59-42 53-27h129V0H18c2-99 128-94 128-182 0-28-16-43-45-43s-46 15-49 41l-32-3c6-41 34-60 81-64" id="bl"/><path fill="#b2b2b2" d="M101-251c68 0 85 55 85 127S166 4 100 4C33 4 14-52 14-124c0-73 17-127 87-127zm-1 229c47 0 54-49 54-102s-4-102-53-102c-51 0-55 48-55 102 0 53 5 102 54 102" id="bm"/><g id="j"><use transform="matrix(0.04248971193415638,0,0,0.04248971193415638,0,0)" xlink:href="#bl"/><use transform="matrix(0.04248971193415638,0,0,0.04248971193415638,8.497942386831275,0)" xlink:href="#bm"/><use transform="matrix(0.04248971193415638,0,0,0.04248971193415638,16.99588477366255,0)" xlink:href="#bl"/><use transform="matrix(0.04248971193415638,0,0,0.04248971193415638,25.493827160493822,0)" xlink:href="#bm"/></g><path fill="#333" d="M141-36C126-15 110 5 73 4 37 3 15-17 15-53c-1-64 63-63 125-63 3-35-9-54-41-54-24 1-41 7-42 31l-33-3c5-37 33-52 76-52 45 0 72 20 72 64v82c-1 20 7 32 28 27v20c-31 9-61-2-59-35zM48-53c0 20 12 33 32 33 41-3 63-29 60-74-43 2-92-5-92 41" id="bn"/><path fill="#333" d="M115-194c53 0 69 39 70 98 0 66-23 100-70 100C84 3 66-7 56-30L54 0H23l1-261h32v101c10-23 28-34 59-34zm-8 174c40 0 45-34 45-75 0-40-5-75-45-74-42 0-51 32-51 76 0 43 10 73 51 73" id="bo"/><path fill="#333" d="M135-143c-3-34-86-38-87 0 15 53 115 12 119 90S17 21 10-45l28-5c4 36 97 45 98 0-10-56-113-15-118-90-4-57 82-63 122-42 12 7 21 19 24 35" id="bp"/><path fill="#333" d="M59-47c-2 24 18 29 38 22v24C64 9 27 4 27-40v-127H5v-23h24l9-43h21v43h35v23H59v120" id="bq"/><path fill="#333" d="M114-163C36-179 61-72 57 0H25l-1-190h30c1 12-1 29 2 39 6-27 23-49 58-41v29" id="br"/><path fill="#333" d="M96-169c-40 0-48 33-48 73s9 75 48 75c24 0 41-14 43-38l32 2c-6 37-31 61-74 61-59 0-76-41-82-99-10-93 101-131 147-64 4 7 5 14 7 22l-32 3c-4-21-16-35-41-35" id="bs"/><g id="k"><use transform="matrix(0.05,0,0,0.05,0,0)" xlink:href="#bn"/><use transform="matrix(0.05,0,0,0.05,10,0)" xlink:href="#bo"/><use transform="matrix(0.05,0,0,0.05,20,0)" xlink:href="#bp"/><use transform="matrix(0.05,0,0,0.05,29,0)" xlink:href="#bq"/><use transform="matrix(0.05,0,0,0.05,34,0)" xlink:href="#br"/><use transform="matrix(0.05,0,0,0.05,39.95,0)" xlink:href="#bn"/><use transform="matrix(0.05,0,0,0.05,49.95,0)" xlink:href="#bs"/><use transform="matrix(0.05,0,0,0.05,58.95,0)" xlink:href="#bq"/></g><path fill="#c92d39" d="M199 0l-22-63H83L61 0H9l90-248h61L250 0h-51zm-33-102l-36-108c-10 38-24 72-36 108h72" id="bt"/><path fill="#c92d39" d="M137-138c1-29-70-34-71-4 15 46 118 7 119 86 1 83-164 76-172 9l43-7c4 19 20 25 44 25 33 8 57-30 24-41C81-84 22-81 20-136c-2-80 154-74 161-7" id="bu"/><path fill="#c92d39" d="M123 10C108 53 80 86 19 72V37c35 8 53-11 59-39L3-190h52l48 148c12-52 28-100 44-148h51" id="bv"/><path fill="#c92d39" d="M135-194c87-1 58 113 63 194h-50c-7-57 23-157-34-157-59 0-34 97-39 157H25l-1-190h47c2 12-1 28 3 38 12-26 28-41 61-42" id="bw"/><path fill="#c92d39" d="M190-63c-7 42-38 67-86 67-59 0-84-38-90-98-12-110 154-137 174-36l-49 2c-2-19-15-32-35-32-30 0-35 28-38 64-6 74 65 87 74 30" id="bx"/><path fill="#c92d39" d="M136-208V0H84v-208H4v-40h212v40h-80" id="by"/><path fill="#c92d39" d="M135-150c-39-12-60 13-60 57V0H25l-1-190h47c2 13-1 29 3 40 6-28 27-53 61-41v41" id="bz"/><path fill="#c92d39" d="M25-224v-37h50v37H25zM25 0v-190h50V0H25" id="bA"/><path fill="#c92d39" d="M195-6C206 82 75 100 31 46c-4-6-6-13-8-21l49-6c3 16 16 24 34 25 40 0 42-37 40-79-11 22-30 35-61 35-53 0-70-43-70-97 0-56 18-96 73-97 30 0 46 14 59 34l2-30h47zm-90-29c32 0 41-27 41-63 0-35-9-62-40-62-32 0-39 29-40 63 0 36 9 62 39 62" id="bB"/><path fill="#c92d39" d="M185-48c-13 30-37 53-82 52C43 2 14-33 14-96s30-98 90-98c62 0 83 45 84 108H66c0 31 8 55 39 56 18 0 30-7 34-22zm-45-69c5-46-57-63-70-21-2 6-4 13-4 21h74" id="bC"/><path fill="#c92d39" d="M186 0v-106H76V0H24v-248h52v99h110v-99h50V0h-50" id="bD"/><path fill="#c92d39" d="M133-34C117-15 103 5 69 4 32 3 11-16 11-54c-1-60 55-63 116-61 1-26-3-47-28-47-18 1-26 9-28 27l-52-2c7-38 36-58 82-57s74 22 75 68l1 82c-1 14 12 18 25 15v27c-30 8-71 5-69-32zm-48 3c29 0 43-24 42-57-32 0-66-3-65 30 0 17 8 27 23 27" id="bE"/><path fill="#c92d39" d="M88-194c31-1 46 15 58 34l-1-101h50l1 261h-48c-2-10 0-23-3-31C134-8 116 4 84 4 32 4 16-41 15-95c0-56 19-97 73-99zm17 164c33 0 40-30 41-66 1-37-9-64-41-64s-38 30-39 65c0 43 13 65 39 65" id="bF"/><path fill="#c92d39" d="M25 0v-261h50V0H25" id="bG"/><path fill="#c92d39" d="M182-130c37 4 62 22 62 59C244 23 116-4 24 0v-248c84 5 203-23 205 63 0 31-19 50-47 55zM76-148c40-3 101 13 101-30 0-44-60-28-101-31v61zm0 110c48-3 116 14 116-37 0-48-69-32-116-35v72" id="bH"/><g id="l"><use transform="matrix(0.05,0,0,0.05,0,0)" xlink:href="#bt"/><use transform="matrix(0.05,0,0,0.05,12.950000000000001,0)" xlink:href="#bu"/><use transform="matrix(0.05,0,0,0.05,22.950000000000003,0)" xlink:href="#bv"/><use transform="matrix(0.05,0,0,0.05,32.95,0)" xlink:href="#bw"/><use transform="matrix(0.05,0,0,0.05,43.900000000000006,0)" xlink:href="#bx"/><use transform="matrix(0.05,0,0,0.05,53.900000000000006,0)" xlink:href="#by"/><use transform="matrix(0.05,0,0,0.05,63.85,0)" xlink:href="#bz"/><use transform="matrix(0.05,0,0,0.05,70.85000000000001,0)" xlink:href="#bA"/><use transform="matrix(0.05,0,0,0.05,75.85000000000001,0)" xlink:href="#bB"/><use transform="matrix(0.05,0,0,0.05,86.80000000000001,0)" xlink:href="#bB"/><use transform="matrix(0.05,0,0,0.05,97.75000000000001,0)" xlink:href="#bC"/><use transform="matrix(0.05,0,0,0.05,107.75,0)" xlink:href="#bz"/><use transform="matrix(0.05,0,0,0.05,114.75,0)" xlink:href="#bD"/><use transform="matrix(0.05,0,0,0.05,127.7,0)" xlink:href="#bE"/><use transform="matrix(0.05,0,0,0.05,137.70000000000002,0)" xlink:href="#bw"/><use transform="matrix(0.05,0,0,0.05,148.65,0)" xlink:href="#bF"/><use transform="matrix(0.05,0,0,0.05,159.6,0)" xlink:href="#bG"/><use transform="matrix(0.05,0,0,0.05,164.6,0)" xlink:href="#bC"/><use transform="matrix(0.05,0,0,0.05,174.6,0)" xlink:href="#bz"/><use transform="matrix(0.05,0,0,0.05,181.6,0)" xlink:href="#bH"/><use transform="matrix(0.05,0,0,0.05,194.54999999999998,0)" xlink:href="#bE"/><use transform="matrix(0.05,0,0,0.05,204.54999999999998,0)" xlink:href="#bu"/><use transform="matrix(0.05,0,0,0.05,214.54999999999995,0)" xlink:href="#bC"/></g><path fill="#333" d="M118-107v75H92v-75H18v-26h74v-75h26v75h74v26h-74" id="bI"/><use transform="matrix(0.05,0,0,0.05,0,0)" xlink:href="#bI" id="m"/><path fill="#333" d="M100-194c63 0 86 42 84 106H49c0 40 14 67 53 68 26 1 43-12 49-29l28 8c-11 28-37 45-77 45C44 4 14-33 15-96c1-61 26-98 85-98zm52 81c6-60-76-77-97-28-3 7-6 17-6 28h103" id="bJ"/><path fill="#333" d="M100-194c62-1 85 37 85 99 1 63-27 99-86 99S16-35 15-95c0-66 28-99 85-99zM99-20c44 1 53-31 53-75 0-43-8-75-51-75s-53 32-53 75 10 74 51 75" id="bK"/><path fill="#333" d="M85-194c31 0 48 13 60 33l-1-100h32l1 261h-30c-2-10 0-23-3-31C134-8 116 4 85 4 32 4 16-35 15-94c0-66 23-100 70-100zm9 24c-40 0-46 34-46 75 0 40 6 74 45 74 42 0 51-32 51-76 0-42-9-74-50-73" id="bL"/><path fill="#333" d="M240 0l2-218c-23 76-54 145-80 218h-23L58-218 59 0H30v-248h44l77 211c21-75 51-140 76-211h43V0h-30" id="bM"/><path fill="#333" d="M115-194c55 1 70 41 70 98S169 2 115 4C84 4 66-9 55-30l1 105H24l-1-265h31l2 30c10-21 28-34 59-34zm-8 174c40 0 45-34 45-75s-6-73-45-74c-42 0-51 32-51 76 0 43 10 73 51 73" id="bN"/><path fill="#333" d="M33-154v-36h34v36H33zM33 0v-36h34V0H33" id="bO"/><g id="n"><use transform="matrix(0.05,0,0,0.05,0,0)" xlink:href="#br"/><use transform="matrix(0.05,0,0,0.05,5.95,0)" xlink:href="#bJ"/><use transform="matrix(0.05,0,0,0.05,15.949999999999998,0)" xlink:href="#bs"/><use transform="matrix(0.05,0,0,0.05,24.95,0)" xlink:href="#bK"/><use transform="matrix(0.05,0,0,0.05,34.95,0)" xlink:href="#br"/><use transform="matrix(0.05,0,0,0.05,40.900000000000006,0)" xlink:href="#bL"/><use transform="matrix(0.05,0,0,0.05,50.900000000000006,0)" xlink:href="#bp"/><use transform="matrix(0.05,0,0,0.05,59.900000000000006,0)" xlink:href="#bM"/><use transform="matrix(0.05,0,0,0.05,74.85000000000001,0)" xlink:href="#bn"/><use transform="matrix(0.05,0,0,0.05,84.85000000000001,0)" xlink:href="#bN"/><use transform="matrix(0.05,0,0,0.05,94.85000000000001,0)" xlink:href="#bO"/></g><path fill="#333" d="M18-100v-36l175-74v27L42-118l151 64v27" id="bP"/><path fill="#333" d="M33 0v-248h34V0H33" id="bQ"/><path fill="#333" d="M68-38c1 34 0 65-14 84H32c9-13 17-26 17-46H33v-38h35" id="bR"/><path fill="#333" d="M185-189c-5-48-123-54-124 2 14 75 158 14 163 119 3 78-121 87-175 55-17-10-28-26-33-46l33-7c5 56 141 63 141-1 0-78-155-14-162-118-5-82 145-84 179-34 5 7 8 16 11 25" id="bS"/><path fill="#333" d="M140-251c81 0 123 46 123 126C263-46 219 4 140 4 59 4 17-45 17-125s42-126 123-126zm0 227c63 0 89-41 89-101s-29-99-89-99c-61 0-89 39-89 99S79-25 140-24" id="bT"/><path fill="#333" d="M24-231v-30h32v30H24zM-9 49c24 4 33-6 33-30v-209h32V24c2 40-23 58-65 49V49" id="bU"/><path fill="#333" d="M18-27v-27l151-64-151-65v-27l175 74v36" id="bV"/><g id="o"><use transform="matrix(0.05,0,0,0.05,0,0)" xlink:href="#bM"/><use transform="matrix(0.05,0,0,0.05,14.950000000000001,0)" xlink:href="#bn"/><use transform="matrix(0.05,0,0,0.05,24.950000000000003,0)" xlink:href="#bN"/><use transform="matrix(0.05,0,0,0.05,34.95,0)" xlink:href="#bP"/><use transform="matrix(0.05,0,0,0.05,45.45,0)" xlink:href="#bQ"/><use transform="matrix(0.05,0,0,0.05,50.45,0)" xlink:href="#bL"/><use transform="matrix(0.05,0,0,0.05,60.45,0)" xlink:href="#bR"/><use transform="matrix(0.05,0,0,0.05,65.45,0)" xlink:href="#bS"/><use transform="matrix(0.05,0,0,0.05,77.45,0)" xlink:href="#bT"/><use transform="matrix(0.05,0,0,0.05,91.45,0)" xlink:href="#bo"/><use transform="matrix(0.05,0,0,0.05,101.45,0)" xlink:href="#bU"/><use transform="matrix(0.05,0,0,0.05,105.4,0)" xlink:href="#bJ"/><use transform="matrix(0.05,0,0,0.05,115.4,0)" xlink:href="#bs"/><use transform="matrix(0.05,0,0,0.05,124.4,0)" xlink:href="#bq"/><use transform="matrix(0.05,0,0,0.05,129.4,0)" xlink:href="#bV"/></g><path fill="#333" d="M101-234c-31-9-42 10-38 44h38v23H63V0H32v-167H5v-23h27c-7-52 17-82 69-68v24" id="bW"/><path fill="#333" d="M24-231v-30h32v30H24zM24 0v-190h32V0H24" id="bX"/><path fill="#333" d="M24 0v-261h32V0H24" id="bY"/><path fill="#333" d="M212-179c-10-28-35-45-73-45-59 0-87 40-87 99 0 60 29 101 89 101 43 0 62-24 78-52l27 14C228-24 195 4 139 4 59 4 22-46 18-125c-6-104 99-153 187-111 19 9 31 26 39 46" id="bZ"/><path fill="#333" d="M106-169C34-169 62-67 57 0H25v-261h32l-1 103c12-21 28-36 61-36 89 0 53 116 60 194h-32v-121c2-32-8-49-39-48" id="ca"/><path fill="#333" d="M117-194c89-4 53 116 60 194h-32v-121c0-31-8-49-39-48C34-167 62-67 57 0H25l-1-190h30c1 10-1 24 2 32 11-22 29-35 61-36" id="cb"/><path fill="#333" d="M177-190C167-65 218 103 67 71c-23-6-38-20-44-43l32-5c15 47 100 32 89-28v-30C133-14 115 1 83 1 29 1 15-40 15-95c0-56 16-97 71-98 29-1 48 16 59 35 1-10 0-23 2-32h30zM94-22c36 0 50-32 50-73 0-42-14-75-50-75-39 0-46 34-46 75s6 73 46 73" id="cc"/><g id="p"><use transform="matrix(0.05,0,0,0.05,0,0)" xlink:href="#bW"/><use transform="matrix(0.05,0,0,0.05,5,0)" xlink:href="#bX"/><use transform="matrix(0.05,0,0,0.05,8.95,0)" xlink:href="#bJ"/><use transform="matrix(0.05,0,0,0.05,18.95,0)" xlink:href="#bY"/><use transform="matrix(0.05,0,0,0.05,22.9,0)" xlink:href="#bL"/><use transform="matrix(0.05,0,0,0.05,32.9,0)" xlink:href="#bp"/><use transform="matrix(0.05,0,0,0.05,41.9,0)" xlink:href="#bZ"/><use transform="matrix(0.05,0,0,0.05,54.85,0)" xlink:href="#ca"/><use transform="matrix(0.05,0,0,0.05,64.85,0)" xlink:href="#bn"/><use transform="matrix(0.05,0,0,0.05,74.85,0)" xlink:href="#cb"/><use transform="matrix(0.05,0,0,0.05,84.85,0)" xlink:href="#cc"/><use transform="matrix(0.05,0,0,0.05,94.85,0)" xlink:href="#bJ"/><use transform="matrix(0.05,0,0,0.05,104.84999999999998,0)" xlink:href="#bL"/><use transform="matrix(0.05,0,0,0.05,114.84999999999998,0)" xlink:href="#bO"/></g><g id="q"><use transform="matrix(0.05,0,0,0.05,0,0)" xlink:href="#bM"/><use transform="matrix(0.05,0,0,0.05,14.950000000000001,0)" xlink:href="#bn"/><use transform="matrix(0.05,0,0,0.05,24.950000000000003,0)" xlink:href="#bN"/><use transform="matrix(0.05,0,0,0.05,34.95,0)" xlink:href="#bP"/><use transform="matrix(0.05,0,0,0.05,45.45,0)" xlink:href="#bQ"/><use transform="matrix(0.05,0,0,0.05,50.45,0)" xlink:href="#bL"/><use transform="matrix(0.05,0,0,0.05,60.45,0)" xlink:href="#bR"/><use transform="matrix(0.05,0,0,0.05,65.45,0)" xlink:href="#bS"/><use transform="matrix(0.05,0,0,0.05,77.45,0)" xlink:href="#bJ"/><use transform="matrix(0.05,0,0,0.05,87.45,0)" xlink:href="#bq"/><use transform="matrix(0.05,0,0,0.05,92.45,0)" xlink:href="#bP"/><use transform="matrix(0.05,0,0,0.05,102.95,0)" xlink:href="#bS"/><use transform="matrix(0.05,0,0,0.05,114.95,0)" xlink:href="#bq"/><use transform="matrix(0.05,0,0,0.05,119.95,0)" xlink:href="#br"/><use transform="matrix(0.05,0,0,0.05,125.9,0)" xlink:href="#bX"/><use transform="matrix(0.05,0,0,0.05,129.85,0)" xlink:href="#cb"/><use transform="matrix(0.05,0,0,0.05,139.85,0)" xlink:href="#cc"/><use transform="matrix(0.05,0,0,0.05,149.85,0)" xlink:href="#bV"/><use transform="matrix(0.05,0,0,0.05,160.35,0)" xlink:href="#bV"/></g><path fill="#333" d="M197 0v-115H63V0H30v-248h33v105h134v-105h34V0h-34" id="cd"/><g id="r"><use transform="matrix(0.05,0,0,0.05,0,0)" xlink:href="#bs"/><use transform="matrix(0.05,0,0,0.05,9,0)" xlink:href="#ca"/><use transform="matrix(0.05,0,0,0.05,19,0)" xlink:href="#bn"/><use transform="matrix(0.05,0,0,0.05,29,0)" xlink:href="#cb"/><use transform="matrix(0.05,0,0,0.05,39,0)" xlink:href="#cc"/><use transform="matrix(0.05,0,0,0.05,49,0)" xlink:href="#bJ"/><use transform="matrix(0.05,0,0,0.05,59,0)" xlink:href="#cd"/><use transform="matrix(0.05,0,0,0.05,71.95,0)" xlink:href="#bJ"/><use transform="matrix(0.05,0,0,0.05,81.95,0)" xlink:href="#bn"/><use transform="matrix(0.05,0,0,0.05,91.95,0)" xlink:href="#bL"/><use transform="matrix(0.05,0,0,0.05,101.95,0)" xlink:href="#bJ"/><use transform="matrix(0.05,0,0,0.05,111.95,0)" xlink:href="#br"/><use transform="matrix(0.05,0,0,0.05,117.9,0)" xlink:href="#bM"/><use transform="matrix(0.05,0,0,0.05,132.85,0)" xlink:href="#bn"/><use transform="matrix(0.05,0,0,0.05,142.85,0)" xlink:href="#bN"/><use transform="matrix(0.05,0,0,0.05,152.85,0)" xlink:href="#bO"/></g><path fill="#333" d="M30 0v-248h187v28H63v79h144v27H63v87h162V0H30" id="ce"/><path fill="#333" d="M108 0H70L1-190h34L89-25l56-165h34" id="cf"/><path fill="#333" d="M160-131c35 5 61 23 61 61C221 17 115-2 30 0v-248c76 3 177-17 177 60 0 33-19 50-47 57zm-97-11c50-1 110 9 110-42 0-47-63-36-110-37v79zm0 115c55-2 124 14 124-45 0-56-70-42-124-44v89" id="cg"/><path fill="#333" d="M84 4C-5 8 30-112 23-190h32v120c0 31 7 50 39 49 72-2 45-101 50-169h31l1 190h-30c-1-10 1-25-2-33-11 22-28 36-60 37" id="ch"/><path fill="#333" d="M33 0v-38h34V0H33" id="ci"/><g id="t"><use transform="matrix(0.05,0,0,0.05,0,0)" xlink:href="#bM"/><use transform="matrix(0.05,0,0,0.05,14.950000000000001,0)" xlink:href="#bn"/><use transform="matrix(0.05,0,0,0.05,24.950000000000003,0)" xlink:href="#bN"/><use transform="matrix(0.05,0,0,0.05,34.95,0)" xlink:href="#bP"/><use transform="matrix(0.05,0,0,0.05,45.45,0)" xlink:href="#bQ"/><use transform="matrix(0.05,0,0,0.05,50.45,0)" xlink:href="#bL"/><use transform="matrix(0.05,0,0,0.05,60.45,0)" xlink:href="#bR"/><use transform="matrix(0.05,0,0,0.05,65.45,0)" xlink:href="#ce"/><use transform="matrix(0.05,0,0,0.05,77.45,0)" xlink:href="#cf"/><use transform="matrix(0.05,0,0,0.05,86.45,0)" xlink:href="#bJ"/><use transform="matrix(0.05,0,0,0.05,96.45,0)" xlink:href="#cb"/><use transform="matrix(0.05,0,0,0.05,106.45,0)" xlink:href="#bq"/><use transform="matrix(0.05,0,0,0.05,111.45,0)" xlink:href="#cg"/><use transform="matrix(0.05,0,0,0.05,123.45,0)" xlink:href="#ch"/><use transform="matrix(0.05,0,0,0.05,133.45,0)" xlink:href="#bp"/><use transform="matrix(0.05,0,0,0.05,142.45,0)" xlink:href="#ci"/><use transform="matrix(0.05,0,0,0.05,147.45,0)" xlink:href="#bZ"/><use transform="matrix(0.05,0,0,0.05,160.39999999999998,0)" xlink:href="#ca"/><use transform="matrix(0.05,0,0,0.05,170.39999999999998,0)" xlink:href="#bn"/><use transform="matrix(0.05,0,0,0.05,180.39999999999998,0)" xlink:href="#cb"/><use transform="matrix(0.05,0,0,0.05,190.39999999999998,0)" xlink:href="#cc"/><use transform="matrix(0.05,0,0,0.05,200.39999999999998,0)" xlink:href="#bJ"/><use transform="matrix(0.05,0,0,0.05,210.39999999999998,0)" xlink:href="#ce"/><use transform="matrix(0.05,0,0,0.05,222.39999999999998,0)" xlink:href="#cf"/><use transform="matrix(0.05,0,0,0.05,231.39999999999998,0)" xlink:href="#bJ"/><use transform="matrix(0.05,0,0,0.05,241.39999999999998,0)" xlink:href="#cb"/><use transform="matrix(0.05,0,0,0.05,251.39999999999998,0)" xlink:href="#bq"/><use transform="matrix(0.05,0,0,0.05,256.4,0)" xlink:href="#cd"/><use transform="matrix(0.05,0,0,0.05,269.34999999999997,0)" xlink:href="#bJ"/><use transform="matrix(0.05,0,0,0.05,279.34999999999997,0)" xlink:href="#bn"/><use transform="matrix(0.05,0,0,0.05,289.34999999999997,0)" xlink:href="#bL"/><use transform="matrix(0.05,0,0,0.05,299.34999999999997,0)" xlink:href="#bJ"/><use transform="matrix(0.05,0,0,0.05,309.34999999999997,0)" xlink:href="#br"/><use transform="matrix(0.05,0,0,0.05,315.29999999999995,0)" xlink:href="#bV"/></g><path fill="#333" d="M87 75C49 33 22-17 22-94c0-76 28-126 65-167h31c-38 41-64 92-64 168S80 34 118 75H87" id="cj"/><path fill="#333" d="M33-261c38 41 65 92 65 168S71 34 33 75H2C39 34 66-17 66-93S39-220 2-261h31" id="ck"/><g id="v"><use transform="matrix(0.05,0,0,0.05,0,0)" xlink:href="#bX"/><use transform="matrix(0.05,0,0,0.05,3.95,0)" xlink:href="#bp"/><use transform="matrix(0.05,0,0,0.05,12.949999999999998,0)" xlink:href="#bQ"/><use transform="matrix(0.05,0,0,0.05,17.95,0)" xlink:href="#cb"/><use transform="matrix(0.05,0,0,0.05,27.950000000000003,0)" xlink:href="#bp"/><use transform="matrix(0.05,0,0,0.05,36.95,0)" xlink:href="#bJ"/><use transform="matrix(0.05,0,0,0.05,46.95,0)" xlink:href="#br"/><use transform="matrix(0.05,0,0,0.05,52.900000000000006,0)" xlink:href="#bq"/><use transform="matrix(0.05,0,0,0.05,57.900000000000006,0)" xlink:href="#cj"/><use transform="matrix(0.05,0,0,0.05,63.85,0)" xlink:href="#ck"/><use transform="matrix(0.05,0,0,0.05,69.80000000000001,0)" xlink:href="#bO"/></g><g id="w"><use transform="matrix(0.05,0,0,0.05,0,0)" xlink:href="#cf"/><use transform="matrix(0.05,0,0,0.05,9,0)" xlink:href="#bK"/><use transform="matrix(0.05,0,0,0.05,19,0)" xlink:href="#bX"/><use transform="matrix(0.05,0,0,0.05,22.95,0)" xlink:href="#bL"/></g><path fill="#333" d="M232-93c-1 65-40 97-104 97C67 4 28-28 28-90v-158h33c8 89-33 224 67 224 102 0 64-133 71-224h33v155" id="cl"/><g id="x"><use transform="matrix(0.05,0,0,0.05,0,0)" xlink:href="#bX"/><use transform="matrix(0.05,0,0,0.05,3.95,0)" xlink:href="#bp"/><use transform="matrix(0.05,0,0,0.05,12.949999999999998,0)" xlink:href="#cl"/><use transform="matrix(0.05,0,0,0.05,25.899999999999995,0)" xlink:href="#bN"/><use transform="matrix(0.05,0,0,0.05,35.9,0)" xlink:href="#bL"/><use transform="matrix(0.05,0,0,0.05,45.9,0)" xlink:href="#bn"/><use transform="matrix(0.05,0,0,0.05,55.900000000000006,0)" xlink:href="#bq"/><use transform="matrix(0.05,0,0,0.05,60.900000000000006,0)" xlink:href="#bJ"/><use transform="matrix(0.05,0,0,0.05,70.9,0)" xlink:href="#cj"/><use transform="matrix(0.05,0,0,0.05,76.85000000000001,0)" xlink:href="#ck"/><use transform="matrix(0.05,0,0,0.05,82.80000000000001,0)" xlink:href="#bO"/></g><path fill="#333" d="M30-248c118-7 216 8 213 122C240-48 200 0 122 0H30v-248zM63-27c89 8 146-16 146-99s-60-101-146-95v194" id="cm"/><g id="y"><use transform="matrix(0.05,0,0,0.05,0,0)" xlink:href="#bX"/><use transform="matrix(0.05,0,0,0.05,3.95,0)" xlink:href="#bp"/><use transform="matrix(0.05,0,0,0.05,12.949999999999998,0)" xlink:href="#cm"/><use transform="matrix(0.05,0,0,0.05,25.899999999999995,0)" xlink:href="#bJ"/><use transform="matrix(0.05,0,0,0.05,35.9,0)" xlink:href="#bY"/><use transform="matrix(0.05,0,0,0.05,39.85,0)" xlink:href="#bJ"/><use transform="matrix(0.05,0,0,0.05,49.85,0)" xlink:href="#bq"/><use transform="matrix(0.05,0,0,0.05,54.85,0)" xlink:href="#bJ"/><use transform="matrix(0.05,0,0,0.05,64.85,0)" xlink:href="#cj"/><use transform="matrix(0.05,0,0,0.05,70.8,0)" xlink:href="#ck"/><use transform="matrix(0.05,0,0,0.05,76.75,0)" xlink:href="#bO"/></g><g id="z"><use transform="matrix(0.05,0,0,0.05,0,0)" xlink:href="#bX"/><use transform="matrix(0.05,0,0,0.05,3.95,0)" xlink:href="#bp"/><use transform="matrix(0.05,0,0,0.05,12.949999999999998,0)" xlink:href="#cl"/><use transform="matrix(0.05,0,0,0.05,25.899999999999995,0)" xlink:href="#cb"/><use transform="matrix(0.05,0,0,0.05,35.9,0)" xlink:href="#bL"/><use transform="matrix(0.05,0,0,0.05,45.9,0)" xlink:href="#bJ"/><use transform="matrix(0.05,0,0,0.05,55.900000000000006,0)" xlink:href="#bY"/><use transform="matrix(0.05,0,0,0.05,59.85,0)" xlink:href="#bJ"/><use transform="matrix(0.05,0,0,0.05,69.85,0)" xlink:href="#bq"/><use transform="matrix(0.05,0,0,0.05,74.85,0)" xlink:href="#bJ"/><use transform="matrix(0.05,0,0,0.05,84.85,0)" xlink:href="#cj"/><use transform="matrix(0.05,0,0,0.05,90.8,0)" xlink:href="#ck"/><use transform="matrix(0.05,0,0,0.05,96.75,0)" xlink:href="#bO"/></g><g id="A"><use transform="matrix(0.05,0,0,0.05,0,0)" xlink:href="#bq"/><use transform="matrix(0.05,0,0,0.05,5,0)" xlink:href="#br"/><use transform="matrix(0.05,0,0,0.05,10.95,0)" xlink:href="#bX"/><use transform="matrix(0.05,0,0,0.05,14.899999999999999,0)" xlink:href="#cc"/><use transform="matrix(0.05,0,0,0.05,24.9,0)" xlink:href="#cc"/><use transform="matrix(0.05,0,0,0.05,34.9,0)" xlink:href="#bJ"/><use transform="matrix(0.05,0,0,0.05,44.9,0)" xlink:href="#br"/><use transform="matrix(0.05,0,0,0.05,50.85,0)" xlink:href="#bS"/><use transform="matrix(0.05,0,0,0.05,62.85,0)" xlink:href="#bJ"/><use transform="matrix(0.05,0,0,0.05,72.85,0)" xlink:href="#bq"/><use transform="matrix(0.05,0,0,0.05,77.85,0)" xlink:href="#ch"/><use transform="matrix(0.05,0,0,0.05,87.85,0)" xlink:href="#bN"/><use transform="matrix(0.05,0,0,0.05,97.85,0)" xlink:href="#cj"/><use transform="matrix(0.05,0,0,0.05,103.80000000000001,0)" xlink:href="#ck"/><use transform="matrix(0.05,0,0,0.05,109.75,0)" xlink:href="#bO"/></g><path fill="#333" d="M16-82v-28h88v28H16" id="cn"/><use transform="matrix(0.05,0,0,0.05,0,0)" xlink:href="#cn" id="C"/><path fill="#333" d="M233-177c-1 41-23 64-60 70L243 0h-38l-65-103H63V0H30v-248c88 3 205-21 203 71zM63-129c60-2 137 13 137-47 0-61-80-42-137-45v92" id="co"/><g id="D"><use transform="matrix(0.05,0,0,0.05,0,0)" xlink:href="#bN"/><use transform="matrix(0.05,0,0,0.05,10,0)" xlink:href="#bK"/><use transform="matrix(0.05,0,0,0.05,20,0)" xlink:href="#bN"/><use transform="matrix(0.05,0,0,0.05,30,0)" xlink:href="#ch"/><use transform="matrix(0.05,0,0,0.05,40,0)" xlink:href="#bY"/><use transform="matrix(0.05,0,0,0.05,43.95,0)" xlink:href="#bn"/><use transform="matrix(0.05,0,0,0.05,53.95,0)" xlink:href="#bq"/><use transform="matrix(0.05,0,0,0.05,58.95,0)" xlink:href="#bJ"/><use transform="matrix(0.05,0,0,0.05,68.95,0)" xlink:href="#co"/><use transform="matrix(0.05,0,0,0.05,81.9,0)" xlink:href="#bJ"/><use transform="matrix(0.05,0,0,0.05,91.9,0)" xlink:href="#bs"/><use transform="matrix(0.05,0,0,0.05,100.9,0)" xlink:href="#bK"/><use transform="matrix(0.05,0,0,0.05,110.9,0)" xlink:href="#br"/><use transform="matrix(0.05,0,0,0.05,116.85000000000001,0)" xlink:href="#bL"/><use transform="matrix(0.05,0,0,0.05,126.85000000000001,0)" xlink:href="#bp"/><use transform="matrix(0.05,0,0,0.05,135.85000000000002,0)" xlink:href="#bM"/><use transform="matrix(0.05,0,0,0.05,150.8,0)" xlink:href="#bn"/><use transform="matrix(0.05,0,0,0.05,160.8,0)" xlink:href="#bN"/><use transform="matrix(0.05,0,0,0.05,170.8,0)" xlink:href="#cj"/><use transform="matrix(0.05,0,0,0.05,176.75,0)" xlink:href="#ck"/><use transform="matrix(0.05,0,0,0.05,182.7,0)" xlink:href="#bO"/></g><path fill="#333" d="M179-190L93 31C79 59 56 82 12 73V49c39 6 53-20 64-50L1-190h34L92-34l54-156h33" id="cp"/><path fill="#333" d="M141 0L90-78 38 0H4l68-98-65-92h35l48 74 47-74h35l-64 92 68 98h-35" id="cq"/><g id="E"><use transform="matrix(0.05,0,0,0.05,0,0)" xlink:href="#bN"/><use transform="matrix(0.05,0,0,0.05,10,0)" xlink:href="#bK"/><use transform="matrix(0.05,0,0,0.05,20,0)" xlink:href="#bN"/><use transform="matrix(0.05,0,0,0.05,30,0)" xlink:href="#ch"/><use transform="matrix(0.05,0,0,0.05,40,0)" xlink:href="#bY"/><use transform="matrix(0.05,0,0,0.05,43.95,0)" xlink:href="#bn"/><use transform="matrix(0.05,0,0,0.05,53.95,0)" xlink:href="#bq"/><use transform="matrix(0.05,0,0,0.05,58.95,0)" xlink:href="#bJ"/><use transform="matrix(0.05,0,0,0.05,68.95,0)" xlink:href="#co"/><use transform="matrix(0.05,0,0,0.05,81.9,0)" xlink:href="#bJ"/><use transform="matrix(0.05,0,0,0.05,91.9,0)" xlink:href="#bs"/><use transform="matrix(0.05,0,0,0.05,100.9,0)" xlink:href="#bK"/><use transform="matrix(0.05,0,0,0.05,110.9,0)" xlink:href="#br"/><use transform="matrix(0.05,0,0,0.05,116.85000000000001,0)" xlink:href="#bL"/><use transform="matrix(0.05,0,0,0.05,126.85000000000001,0)" xlink:href="#bp"/><use transform="matrix(0.05,0,0,0.05,135.85000000000002,0)" xlink:href="#bM"/><use transform="matrix(0.05,0,0,0.05,150.8,0)" xlink:href="#bn"/><use transform="matrix(0.05,0,0,0.05,160.8,0)" xlink:href="#bN"/><use transform="matrix(0.05,0,0,0.05,170.8,0)" xlink:href="#cg"/><use transform="matrix(0.05,0,0,0.05,182.8,0)" xlink:href="#cp"/><use transform="matrix(0.05,0,0,0.05,191.8,0)" xlink:href="#bZ"/><use transform="matrix(0.05,0,0,0.05,204.75,0)" xlink:href="#bK"/><use transform="matrix(0.05,0,0,0.05,214.75,0)" xlink:href="#cb"/><use transform="matrix(0.05,0,0,0.05,224.75,0)" xlink:href="#bq"/><use transform="matrix(0.05,0,0,0.05,229.75,0)" xlink:href="#bJ"/><use transform="matrix(0.05,0,0,0.05,239.75,0)" xlink:href="#cq"/><use transform="matrix(0.05,0,0,0.05,248.75,0)" xlink:href="#bq"/><use transform="matrix(0.05,0,0,0.05,253.75,0)" xlink:href="#cj"/><use transform="matrix(0.05,0,0,0.05,259.7,0)" xlink:href="#ck"/><use transform="matrix(0.05,0,0,0.05,265.65,0)" xlink:href="#bO"/></g><g id="F"><use transform="matrix(0.05,0,0,0.05,0,0)" xlink:href="#bN"/><use transform="matrix(0.05,0,0,0.05,10,0)" xlink:href="#bK"/><use transform="matrix(0.05,0,0,0.05,20,0)" xlink:href="#bN"/><use transform="matrix(0.05,0,0,0.05,30,0)" xlink:href="#ch"/><use transform="matrix(0.05,0,0,0.05,40,0)" xlink:href="#bY"/><use transform="matrix(0.05,0,0,0.05,43.95,0)" xlink:href="#bn"/><use transform="matrix(0.05,0,0,0.05,53.95,0)" xlink:href="#bq"/><use transform="matrix(0.05,0,0,0.05,58.95,0)" xlink:href="#bJ"/><use transform="matrix(0.05,0,0,0.05,68.95,0)" xlink:href="#bZ"/><use transform="matrix(0.05,0,0,0.05,81.9,0)" xlink:href="#ca"/><use transform="matrix(0.05,0,0,0.05,91.9,0)" xlink:href="#bn"/><use transform="matrix(0.05,0,0,0.05,101.9,0)" xlink:href="#cb"/><use transform="matrix(0.05,0,0,0.05,111.9,0)" xlink:href="#cc"/><use transform="matrix(0.05,0,0,0.05,121.9,0)" xlink:href="#bJ"/><use transform="matrix(0.05,0,0,0.05,131.9,0)" xlink:href="#ce"/><use transform="matrix(0.05,0,0,0.05,143.9,0)" xlink:href="#cf"/><use transform="matrix(0.05,0,0,0.05,152.9,0)" xlink:href="#bJ"/><use transform="matrix(0.05,0,0,0.05,162.9,0)" xlink:href="#cb"/><use transform="matrix(0.05,0,0,0.05,172.9,0)" xlink:href="#bq"/><use transform="matrix(0.05,0,0,0.05,177.9,0)" xlink:href="#cd"/><use transform="matrix(0.05,0,0,0.05,190.85,0)" xlink:href="#bJ"/><use transform="matrix(0.05,0,0,0.05,200.85,0)" xlink:href="#bn"/><use transform="matrix(0.05,0,0,0.05,210.85000000000002,0)" xlink:href="#bL"/><use transform="matrix(0.05,0,0,0.05,220.85000000000002,0)" xlink:href="#bJ"/><use transform="matrix(0.05,0,0,0.05,230.85000000000002,0)" xlink:href="#br"/><use transform="matrix(0.05,0,0,0.05,236.79999999999995,0)" xlink:href="#bp"/><use transform="matrix(0.05,0,0,0.05,245.79999999999995,0)" xlink:href="#cj"/><use transform="matrix(0.05,0,0,0.05,251.74999999999997,0)" xlink:href="#ck"/><use transform="matrix(0.05,0,0,0.05,257.7,0)" xlink:href="#bO"/></g><path fill="#333" d="M63-220v92h138v28H63V0H30v-248h175v28H63" id="cr"/><g id="G"><use transform="matrix(0.05,0,0,0.05,0,0)" xlink:href="#bN"/><use transform="matrix(0.05,0,0,0.05,10,0)" xlink:href="#bK"/><use transform="matrix(0.05,0,0,0.05,20,0)" xlink:href="#bN"/><use transform="matrix(0.05,0,0,0.05,30,0)" xlink:href="#ch"/><use transform="matrix(0.05,0,0,0.05,40,0)" xlink:href="#bY"/><use transform="matrix(0.05,0,0,0.05,43.95,0)" xlink:href="#bn"/><use transform="matrix(0.05,0,0,0.05,53.95,0)" xlink:href="#bq"/><use transform="matrix(0.05,0,0,0.05,58.95,0)" xlink:href="#bJ"/><use transform="matrix(0.05,0,0,0.05,68.95,0)" xlink:href="#cr"/><use transform="matrix(0.05,0,0,0.05,79.9,0)" xlink:href="#bX"/><use transform="matrix(0.05,0,0,0.05,83.85000000000001,0)" xlink:href="#bJ"/><use transform="matrix(0.05,0,0,0.05,93.85000000000001,0)" xlink:href="#bY"/><use transform="matrix(0.05,0,0,0.05,97.80000000000001,0)" xlink:href="#bL"/><use transform="matrix(0.05,0,0,0.05,107.80000000000001,0)" xlink:href="#bp"/><use transform="matrix(0.05,0,0,0.05,116.80000000000001,0)" xlink:href="#bZ"/><use transform="matrix(0.05,0,0,0.05,129.75,0)" xlink:href="#ca"/><use transform="matrix(0.05,0,0,0.05,139.75,0)" xlink:href="#bn"/><use transform="matrix(0.05,0,0,0.05,149.75,0)" xlink:href="#cb"/><use transform="matrix(0.05,0,0,0.05,159.75,0)" xlink:href="#cc"/><use transform="matrix(0.05,0,0,0.05,169.75,0)" xlink:href="#bJ"/><use transform="matrix(0.05,0,0,0.05,179.75,0)" xlink:href="#bL"/><use transform="matrix(0.05,0,0,0.05,189.75,0)" xlink:href="#cj"/><use transform="matrix(0.05,0,0,0.05,195.7,0)" xlink:href="#ck"/><use transform="matrix(0.05,0,0,0.05,201.64999999999998,0)" xlink:href="#bO"/></g><g id="H"><use transform="matrix(0.05,0,0,0.05,0,0)" xlink:href="#cf"/><use transform="matrix(0.05,0,0,0.05,9,0)" xlink:href="#bK"/><use transform="matrix(0.05,0,0,0.05,19,0)" xlink:href="#bX"/><use transform="matrix(0.05,0,0,0.05,22.95,0)" xlink:href="#bL"/></g><path fill="#ef8d22" d="M199 0l-22-63H83L61 0H9l90-248h61L250 0h-51zm-33-102l-36-108c-10 38-24 72-36 108h72" id="cs"/><path fill="#ef8d22" d="M190-63c-7 42-38 67-86 67-59 0-84-38-90-98-12-110 154-137 174-36l-49 2c-2-19-15-32-35-32-30 0-35 28-38 64-6 74 65 87 74 30" id="ct"/><path fill="#ef8d22" d="M110-194c64 0 96 36 96 99 0 64-35 99-97 99-61 0-95-36-95-99 0-62 34-99 96-99zm-1 164c35 0 45-28 45-65 0-40-10-65-43-65-34 0-45 26-45 65 0 36 10 65 43 65" id="cu"/><path fill="#ef8d22" d="M85 4C-2 5 27-109 22-190h50c7 57-23 150 33 157 60-5 35-97 40-157h50l1 190h-47c-2-12 1-28-3-38-12 25-28 42-61 42" id="cv"/><path fill="#ef8d22" d="M135-194c87-1 58 113 63 194h-50c-7-57 23-157-34-157-59 0-34 97-39 157H25l-1-190h47c2 12-1 28 3 38 12-26 28-41 61-42" id="cw"/><path fill="#ef8d22" d="M115-3C79 11 28 4 28-45v-112H4v-33h27l15-45h31v45h36v33H77v99c-1 23 16 31 38 25v30" id="cx"/><path fill="#ef8d22" d="M-4 44V30h207v14H-4" id="cy"/><path fill="#ef8d22" d="M136-208V0H84v-208H4v-40h212v40h-80" id="cz"/><path fill="#ef8d22" d="M186 0v-106H76V0H24v-248h52v99h110v-99h50V0h-50" id="cA"/><g id="I"><use transform="matrix(0.05,0,0,0.05,0,0)" xlink:href="#cs"/><use transform="matrix(0.05,0,0,0.05,12.950000000000001,0)" xlink:href="#ct"/><use transform="matrix(0.05,0,0,0.05,22.950000000000003,0)" xlink:href="#ct"/><use transform="matrix(0.05,0,0,0.05,32.95,0)" xlink:href="#cu"/><use transform="matrix(0.05,0,0,0.05,43.900000000000006,0)" xlink:href="#cv"/><use transform="matrix(0.05,0,0,0.05,54.85,0)" xlink:href="#cw"/><use transform="matrix(0.05,0,0,0.05,65.80000000000001,0)" xlink:href="#cx"/><use transform="matrix(0.05,0,0,0.05,71.75000000000001,0)" xlink:href="#cy"/><use transform="matrix(0.05,0,0,0.05,81.75000000000001,0)" xlink:href="#cs"/><use transform="matrix(0.05,0,0,0.05,93.35000000000002,0)" xlink:href="#cz"/><use transform="matrix(0.05,0,0,0.05,104.30000000000003,0)" xlink:href="#cA"/></g><path fill="#c92d39" d="M76-208v77h127v40H76V0H24v-248h183v40H76" id="cB"/><path fill="#c92d39" d="M115-3C79 11 28 4 28-45v-112H4v-33h27l15-45h31v45h36v33H77v99c-1 23 16 31 38 25v30" id="cC"/><path fill="#c92d39" d="M110-194c64 0 96 36 96 99 0 64-35 99-97 99-61 0-95-36-95-99 0-62 34-99 96-99zm-1 164c35 0 45-28 45-65 0-40-10-65-43-65-34 0-45 26-45 65 0 36 10 65 43 65" id="cD"/><g id="J"><use transform="matrix(0.05,0,0,0.05,0,0)" xlink:href="#bt"/><use transform="matrix(0.05,0,0,0.05,12.950000000000001,0)" xlink:href="#bu"/><use transform="matrix(0.05,0,0,0.05,22.950000000000003,0)" xlink:href="#bv"/><use transform="matrix(0.05,0,0,0.05,32.95,0)" xlink:href="#bw"/><use transform="matrix(0.05,0,0,0.05,43.900000000000006,0)" xlink:href="#bx"/><use transform="matrix(0.05,0,0,0.05,53.900000000000006,0)" xlink:href="#by"/><use transform="matrix(0.05,0,0,0.05,63.85,0)" xlink:href="#bz"/><use transform="matrix(0.05,0,0,0.05,70.85000000000001,0)" xlink:href="#bA"/><use transform="matrix(0.05,0,0,0.05,75.85000000000001,0)" xlink:href="#bB"/><use transform="matrix(0.05,0,0,0.05,86.80000000000001,0)" xlink:href="#bB"/><use transform="matrix(0.05,0,0,0.05,97.75000000000001,0)" xlink:href="#bC"/><use transform="matrix(0.05,0,0,0.05,107.75,0)" xlink:href="#bz"/><use transform="matrix(0.05,0,0,0.05,114.75,0)" xlink:href="#cB"/><use transform="matrix(0.05,0,0,0.05,125.7,0)" xlink:href="#bE"/><use transform="matrix(0.05,0,0,0.05,135.70000000000002,0)" xlink:href="#bx"/><use transform="matrix(0.05,0,0,0.05,145.70000000000002,0)" xlink:href="#cC"/><use transform="matrix(0.05,0,0,0.05,151.65,0)" xlink:href="#cD"/><use transform="matrix(0.05,0,0,0.05,162.6,0)" xlink:href="#bz"/><use transform="matrix(0.05,0,0,0.05,169.6,0)" xlink:href="#bv"/></g><path fill="#333" d="M9 0v-24l116-142H16v-24h144v24L44-24h123V0H9" id="cE"/><g id="K"><use transform="matrix(0.05,0,0,0.05,0,0)" xlink:href="#bI"/><use transform="matrix(0.05,0,0,0.05,10.5,0)" xlink:href="#bX"/><use transform="matrix(0.05,0,0,0.05,14.449999999999998,0)" xlink:href="#cb"/><use transform="matrix(0.05,0,0,0.05,24.45,0)" xlink:href="#bX"/><use transform="matrix(0.05,0,0,0.05,28.399999999999995,0)" xlink:href="#bq"/><use transform="matrix(0.05,0,0,0.05,33.4,0)" xlink:href="#bX"/><use transform="matrix(0.05,0,0,0.05,37.35,0)" xlink:href="#bn"/><use transform="matrix(0.05,0,0,0.05,47.35,0)" xlink:href="#bY"/><use transform="matrix(0.05,0,0,0.05,51.300000000000004,0)" xlink:href="#bX"/><use transform="matrix(0.05,0,0,0.05,55.25,0)" xlink:href="#cE"/><use transform="matrix(0.05,0,0,0.05,64.25,0)" xlink:href="#bJ"/><use transform="matrix(0.05,0,0,0.05,74.25,0)" xlink:href="#cj"/><use transform="matrix(0.05,0,0,0.05,80.2,0)" xlink:href="#ck"/><use transform="matrix(0.05,0,0,0.05,86.15,0)" xlink:href="#bO"/></g><g id="L"><use transform="matrix(0.05,0,0,0.05,0,0)" xlink:href="#bJ"/><use transform="matrix(0.05,0,0,0.05,10,0)" xlink:href="#cq"/><use transform="matrix(0.05,0,0,0.05,19,0)" xlink:href="#bJ"/><use transform="matrix(0.05,0,0,0.05,29,0)" xlink:href="#bs"/><use transform="matrix(0.05,0,0,0.05,38,0)" xlink:href="#ch"/><use transform="matrix(0.05,0,0,0.05,48,0)" xlink:href="#bq"/><use transform="matrix(0.05,0,0,0.05,53,0)" xlink:href="#bJ"/><use transform="matrix(0.05,0,0,0.05,63,0)" xlink:href="#cj"/><use transform="matrix(0.05,0,0,0.05,68.95,0)" xlink:href="#ck"/><use transform="matrix(0.05,0,0,0.05,74.9,0)" xlink:href="#bO"/></g><g id="M"><use transform="matrix(0.05,0,0,0.05,0,0)" xlink:href="#cc"/><use transform="matrix(0.05,0,0,0.05,10,0)" xlink:href="#bJ"/><use transform="matrix(0.05,0,0,0.05,20,0)" xlink:href="#bq"/><use transform="matrix(0.05,0,0,0.05,25,0)" xlink:href="#cd"/><use transform="matrix(0.05,0,0,0.05,37.95,0)" xlink:href="#bn"/><use transform="matrix(0.05,0,0,0.05,47.95,0)" xlink:href="#cb"/><use transform="matrix(0.05,0,0,0.05,57.95,0)" xlink:href="#bL"/><use transform="matrix(0.05,0,0,0.05,67.95,0)" xlink:href="#bY"/><use transform="matrix(0.05,0,0,0.05,71.9,0)" xlink:href="#bJ"/><use transform="matrix(0.05,0,0,0.05,81.9,0)" xlink:href="#br"/><use transform="matrix(0.05,0,0,0.05,87.85000000000001,0)" xlink:href="#cj"/><use transform="matrix(0.05,0,0,0.05,93.80000000000001,0)" xlink:href="#ck"/><use transform="matrix(0.05,0,0,0.05,99.75000000000001,0)" xlink:href="#bO"/></g><path fill="#333" d="M205 0l-28-72H64L36 0H1l101-248h38L239 0h-34zm-38-99l-47-123c-12 45-31 82-46 123h93" id="cF"/><path fill="#333" d="M127-220V0H93v-220H8v-28h204v28h-85" id="cG"/><g id="N"><use transform="matrix(0.05,0,0,0.05,0,0)" xlink:href="#cF"/><use transform="matrix(0.05,0,0,0.05,12,0)" xlink:href="#bp"/><use transform="matrix(0.05,0,0,0.05,21,0)" xlink:href="#cp"/><use transform="matrix(0.05,0,0,0.05,30,0)" xlink:href="#cb"/><use transform="matrix(0.05,0,0,0.05,40,0)" xlink:href="#bs"/><use transform="matrix(0.05,0,0,0.05,49,0)" xlink:href="#cG"/><use transform="matrix(0.05,0,0,0.05,59.300000000000004,0)" xlink:href="#br"/><use transform="matrix(0.05,0,0,0.05,65.25,0)" xlink:href="#bX"/><use transform="matrix(0.05,0,0,0.05,69.2,0)" xlink:href="#cc"/><use transform="matrix(0.05,0,0,0.05,79.2,0)" xlink:href="#cc"/><use transform="matrix(0.05,0,0,0.05,89.2,0)" xlink:href="#bJ"/><use transform="matrix(0.05,0,0,0.05,99.2,0)" xlink:href="#br"/><use transform="matrix(0.05,0,0,0.05,105.15,0)" xlink:href="#cd"/><use transform="matrix(0.05,0,0,0.05,118.10000000000001,0)" xlink:href="#bn"/><use transform="matrix(0.05,0,0,0.05,128.10000000000002,0)" xlink:href="#cb"/><use transform="matrix(0.05,0,0,0.05,138.10000000000002,0)" xlink:href="#bL"/><use transform="matrix(0.05,0,0,0.05,148.10000000000002,0)" xlink:href="#bY"/><use transform="matrix(0.05,0,0,0.05,152.05,0)" xlink:href="#bJ"/><use transform="matrix(0.05,0,0,0.05,162.05,0)" xlink:href="#br"/><use transform="matrix(0.05,0,0,0.05,168,0)" xlink:href="#cg"/><use transform="matrix(0.05,0,0,0.05,180,0)" xlink:href="#bn"/><use transform="matrix(0.05,0,0,0.05,190,0)" xlink:href="#bp"/><use transform="matrix(0.05,0,0,0.05,199,0)" xlink:href="#bJ"/></g><path fill="#333" d="M190 0L58-211 59 0H30v-248h39L202-35l-2-213h31V0h-41" id="cH"/><path fill="#333" d="M210-169c-67 3-38 105-44 169h-31v-121c0-29-5-50-35-48C34-165 62-65 56 0H25l-1-190h30c1 10-1 24 2 32 10-44 99-50 107 0 11-21 27-35 58-36 85-2 47 119 55 194h-31v-121c0-29-5-49-35-48" id="cI"/><g id="O"><use transform="matrix(0.05,0,0,0.05,0,0)" xlink:href="#bs"/><use transform="matrix(0.05,0,0,0.05,9,0)" xlink:href="#bK"/><use transform="matrix(0.05,0,0,0.05,19,0)" xlink:href="#cb"/><use transform="matrix(0.05,0,0,0.05,29,0)" xlink:href="#cf"/><use transform="matrix(0.05,0,0,0.05,38,0)" xlink:href="#bJ"/><use transform="matrix(0.05,0,0,0.05,48,0)" xlink:href="#br"/><use transform="matrix(0.05,0,0,0.05,53.95,0)" xlink:href="#bq"/><use transform="matrix(0.05,0,0,0.05,58.95,0)" xlink:href="#bT"/><use transform="matrix(0.05,0,0,0.05,72.95,0)" xlink:href="#bo"/><use transform="matrix(0.05,0,0,0.05,82.95,0)" xlink:href="#bU"/><use transform="matrix(0.05,0,0,0.05,86.9,0)" xlink:href="#bJ"/><use transform="matrix(0.05,0,0,0.05,96.9,0)" xlink:href="#bs"/><use transform="matrix(0.05,0,0,0.05,105.9,0)" xlink:href="#bq"/><use transform="matrix(0.05,0,0,0.05,110.9,0)" xlink:href="#cH"/><use transform="matrix(0.05,0,0,0.05,123.85000000000001,0)" xlink:href="#bn"/><use transform="matrix(0.05,0,0,0.05,133.85000000000002,0)" xlink:href="#cI"/><use transform="matrix(0.05,0,0,0.05,148.8,0)" xlink:href="#bJ"/><use transform="matrix(0.05,0,0,0.05,158.8,0)" xlink:href="#cG"/><use transform="matrix(0.05,0,0,0.05,167.75,0)" xlink:href="#bK"/><use transform="matrix(0.05,0,0,0.05,177.75,0)" xlink:href="#cd"/><use transform="matrix(0.05,0,0,0.05,190.7,0)" xlink:href="#bn"/><use transform="matrix(0.05,0,0,0.05,200.7,0)" xlink:href="#cb"/><use transform="matrix(0.05,0,0,0.05,210.69999999999996,0)" xlink:href="#bL"/><use transform="matrix(0.05,0,0,0.05,220.69999999999996,0)" xlink:href="#bY"/><use transform="matrix(0.05,0,0,0.05,224.64999999999998,0)" xlink:href="#bJ"/><use transform="matrix(0.05,0,0,0.05,234.64999999999998,0)" xlink:href="#br"/><use transform="matrix(0.05,0,0,0.05,240.59999999999997,0)" xlink:href="#cH"/><use transform="matrix(0.05,0,0,0.05,253.54999999999995,0)" xlink:href="#bn"/><use transform="matrix(0.05,0,0,0.05,263.54999999999995,0)" xlink:href="#cI"/><use transform="matrix(0.05,0,0,0.05,278.49999999999994,0)" xlink:href="#bJ"/><use transform="matrix(0.05,0,0,0.05,288.49999999999994,0)" xlink:href="#cj"/><use transform="matrix(0.05,0,0,0.05,294.44999999999993,0)" xlink:href="#ck"/><use transform="matrix(0.05,0,0,0.05,300.3999999999999,0)" xlink:href="#bO"/></g><path fill="#ef8d22" d="M67-125c0 53 21 87 73 88 37 1 54-22 65-47l45 17C233-25 199 4 140 4 58 4 20-42 15-125 8-235 124-281 211-232c18 10 29 29 36 50l-46 12c-8-25-30-41-62-41-52 0-71 34-72 86" id="cJ"/><path fill="#ef8d22" d="M114-157C55-157 80-60 75 0H25v-261h50l-1 109c12-26 28-41 61-42 86-1 58 113 63 194h-50c-7-57 23-157-34-157" id="cK"/><path fill="#ef8d22" d="M133-34C117-15 103 5 69 4 32 3 11-16 11-54c-1-60 55-63 116-61 1-26-3-47-28-47-18 1-26 9-28 27l-52-2c7-38 36-58 82-57s74 22 75 68l1 82c-1 14 12 18 25 15v27c-30 8-71 5-69-32zm-48 3c29 0 43-24 42-57-32 0-66-3-65 30 0 17 8 27 23 27" id="cL"/><path fill="#ef8d22" d="M195-6C206 82 75 100 31 46c-4-6-6-13-8-21l49-6c3 16 16 24 34 25 40 0 42-37 40-79-11 22-30 35-61 35-53 0-70-43-70-97 0-56 18-96 73-97 30 0 46 14 59 34l2-30h47zm-90-29c32 0 41-27 41-63 0-35-9-62-40-62-32 0-39 29-40 63 0 36 9 62 39 62" id="cM"/><path fill="#ef8d22" d="M185-48c-13 30-37 53-82 52C43 2 14-33 14-96s30-98 90-98c62 0 83 45 84 108H66c0 31 8 55 39 56 18 0 30-7 34-22zm-45-69c5-46-57-63-70-21-2 6-4 13-4 21h74" id="cN"/><path fill="#ef8d22" d="M24 0v-248h195v40H76v63h132v40H76v65h150V0H24" id="cO"/><path fill="#ef8d22" d="M128 0H69L1-190h53L99-40l48-150h52" id="cP"/><path fill="#ef8d22" d="M135-150c-39-12-60 13-60 57V0H25l-1-190h47c2 13-1 29 3 40 6-28 27-53 61-41v41" id="cQ"/><path fill="#ef8d22" d="M25-224v-37h50v37H25zM25 0v-190h50V0H25" id="cR"/><g id="P"><use transform="matrix(0.05,0,0,0.05,0,0)" xlink:href="#cs"/><use transform="matrix(0.05,0,0,0.05,12.950000000000001,0)" xlink:href="#ct"/><use transform="matrix(0.05,0,0,0.05,22.950000000000003,0)" xlink:href="#ct"/><use transform="matrix(0.05,0,0,0.05,32.95,0)" xlink:href="#cu"/><use transform="matrix(0.05,0,0,0.05,43.900000000000006,0)" xlink:href="#cv"/><use transform="matrix(0.05,0,0,0.05,54.85,0)" xlink:href="#cw"/><use transform="matrix(0.05,0,0,0.05,65.80000000000001,0)" xlink:href="#cx"/><use transform="matrix(0.05,0,0,0.05,71.75000000000001,0)" xlink:href="#cJ"/><use transform="matrix(0.05,0,0,0.05,84.70000000000002,0)" xlink:href="#cK"/><use transform="matrix(0.05,0,0,0.05,95.65000000000002,0)" xlink:href="#cL"/><use transform="matrix(0.05,0,0,0.05,105.65000000000003,0)" xlink:href="#cw"/><use transform="matrix(0.05,0,0,0.05,116.60000000000002,0)" xlink:href="#cM"/><use transform="matrix(0.05,0,0,0.05,127.55000000000003,0)" xlink:href="#cN"/><use transform="matrix(0.05,0,0,0.05,137.55,0)" xlink:href="#cO"/><use transform="matrix(0.05,0,0,0.05,149.55,0)" xlink:href="#cP"/><use transform="matrix(0.05,0,0,0.05,159.55,0)" xlink:href="#cN"/><use transform="matrix(0.05,0,0,0.05,169.55,0)" xlink:href="#cw"/><use transform="matrix(0.05,0,0,0.05,180.5,0)" xlink:href="#cx"/><use transform="matrix(0.05,0,0,0.05,186.45,0)" xlink:href="#cz"/><use transform="matrix(0.05,0,0,0.05,196.39999999999998,0)" xlink:href="#cQ"/><use transform="matrix(0.05,0,0,0.05,203.39999999999998,0)" xlink:href="#cR"/><use transform="matrix(0.05,0,0,0.05,208.39999999999998,0)" xlink:href="#cM"/><use transform="matrix(0.05,0,0,0.05,219.34999999999997,0)" xlink:href="#cM"/><use transform="matrix(0.05,0,0,0.05,230.29999999999995,0)" xlink:href="#cN"/><use transform="matrix(0.05,0,0,0.05,240.29999999999995,0)" xlink:href="#cQ"/></g><path d="M205 0l-28-72H64L36 0H1l101-248h38L239 0h-34zm-38-99l-47-123c-12 45-31 82-46 123h93" id="cS"/><path d="M96-169c-40 0-48 33-48 73s9 75 48 75c24 0 41-14 43-38l32 2c-6 37-31 61-74 61-59 0-76-41-82-99-10-93 101-131 147-64 4 7 5 14 7 22l-32 3c-4-21-16-35-41-35" id="cT"/><path d="M100-194c62-1 85 37 85 99 1 63-27 99-86 99S16-35 15-95c0-66 28-99 85-99zM99-20c44 1 53-31 53-75 0-43-8-75-51-75s-53 32-53 75 10 74 51 75" id="cU"/><path d="M84 4C-5 8 30-112 23-190h32v120c0 31 7 50 39 49 72-2 45-101 50-169h31l1 190h-30c-1-10 1-25-2-33-11 22-28 36-60 37" id="cV"/><path d="M117-194c89-4 53 116 60 194h-32v-121c0-31-8-49-39-48C34-167 62-67 57 0H25l-1-190h30c1 10-1 24 2 32 11-22 29-35 61-36" id="cW"/><path d="M59-47c-2 24 18 29 38 22v24C64 9 27 4 27-40v-127H5v-23h24l9-43h21v43h35v23H59v120" id="cX"/><path d="M24-231v-30h32v30H24zM24 0v-190h32V0H24" id="cY"/><path d="M177-190C167-65 218 103 67 71c-23-6-38-20-44-43l32-5c15 47 100 32 89-28v-30C133-14 115 1 83 1 29 1 15-40 15-95c0-56 16-97 71-98 29-1 48 16 59 35 1-10 0-23 2-32h30zM94-22c36 0 50-32 50-73 0-42-14-75-50-75-39 0-46 34-46 75s6 73 46 73" id="cZ"/><path d="M185-189c-5-48-123-54-124 2 14 75 158 14 163 119 3 78-121 87-175 55-17-10-28-26-33-46l33-7c5 56 141 63 141-1 0-78-155-14-162-118-5-82 145-84 179-34 5 7 8 16 11 25" id="da"/><path d="M100-194c63 0 86 42 84 106H49c0 40 14 67 53 68 26 1 43-12 49-29l28 8c-11 28-37 45-77 45C44 4 14-33 15-96c1-61 26-98 85-98zm52 81c6-60-76-77-97-28-3 7-6 17-6 28h103" id="db"/><path d="M114-163C36-179 61-72 57 0H25l-1-190h30c1 12-1 29 2 39 6-27 23-49 58-41v29" id="dc"/><path d="M108 0H70L1-190h34L89-25l56-165h34" id="dd"/><g id="Q"><use transform="matrix(0.05,0,0,0.05,0,0)" xlink:href="#cS"/><use transform="matrix(0.05,0,0,0.05,12,0)" xlink:href="#cT"/><use transform="matrix(0.05,0,0,0.05,21,0)" xlink:href="#cT"/><use transform="matrix(0.05,0,0,0.05,30,0)" xlink:href="#cU"/><use transform="matrix(0.05,0,0,0.05,40,0)" xlink:href="#cV"/><use transform="matrix(0.05,0,0,0.05,50,0)" xlink:href="#cW"/><use transform="matrix(0.05,0,0,0.05,60,0)" xlink:href="#cX"/><use transform="matrix(0.05,0,0,0.05,65,0)" xlink:href="#cY"/><use transform="matrix(0.05,0,0,0.05,68.95,0)" xlink:href="#cW"/><use transform="matrix(0.05,0,0,0.05,78.95,0)" xlink:href="#cZ"/><use transform="matrix(0.05,0,0,0.05,88.95,0)" xlink:href="#da"/><use transform="matrix(0.05,0,0,0.05,100.95,0)" xlink:href="#db"/><use transform="matrix(0.05,0,0,0.05,110.95,0)" xlink:href="#dc"/><use transform="matrix(0.05,0,0,0.05,116.9,0)" xlink:href="#dd"/><use transform="matrix(0.05,0,0,0.05,125.9,0)" xlink:href="#cY"/><use transform="matrix(0.05,0,0,0.05,129.85,0)" xlink:href="#cT"/><use transform="matrix(0.05,0,0,0.05,138.85,0)" xlink:href="#db"/></g><g id="R"><use transform="matrix(0.05,0,0,0.05,0,0)" xlink:href="#bI"/><use transform="matrix(0.05,0,0,0.05,10.5,0)" xlink:href="#bY"/><use transform="matrix(0.05,0,0,0.05,14.449999999999998,0)" xlink:href="#bn"/><use transform="matrix(0.05,0,0,0.05,24.45,0)" xlink:href="#br"/><use transform="matrix(0.05,0,0,0.05,30.399999999999995,0)" xlink:href="#cc"/><use transform="matrix(0.05,0,0,0.05,40.4,0)" xlink:href="#bJ"/><use transform="matrix(0.05,0,0,0.05,50.4,0)" xlink:href="#bZ"/><use transform="matrix(0.05,0,0,0.05,63.35,0)" xlink:href="#bn"/><use transform="matrix(0.05,0,0,0.05,73.35,0)" xlink:href="#bY"/><use transform="matrix(0.05,0,0,0.05,77.3,0)" xlink:href="#bs"/><use transform="matrix(0.05,0,0,0.05,86.3,0)" xlink:href="#ch"/><use transform="matrix(0.05,0,0,0.05,96.3,0)" xlink:href="#bY"/><use transform="matrix(0.05,0,0,0.05,100.25,0)" xlink:href="#bn"/><use transform="matrix(0.05,0,0,0.05,110.25,0)" xlink:href="#bq"/><use transform="matrix(0.05,0,0,0.05,115.25,0)" xlink:href="#bX"/><use transform="matrix(0.05,0,0,0.05,119.2,0)" xlink:href="#bK"/><use transform="matrix(0.05,0,0,0.05,129.2,0)" xlink:href="#cb"/><use transform="matrix(0.05,0,0,0.05,139.2,0)" xlink:href="#cj"/><use transform="matrix(0.05,0,0,0.05,145.14999999999998,0)" xlink:href="#ck"/><use transform="matrix(0.05,0,0,0.05,151.09999999999997,0)" xlink:href="#bO"/></g><path d="M266 0h-40l-56-210L115 0H75L2-248h35L96-30l15-64 43-154h32l59 218 59-218h35" id="de"/><path d="M141-36C126-15 110 5 73 4 37 3 15-17 15-53c-1-64 63-63 125-63 3-35-9-54-41-54-24 1-41 7-42 31l-33-3c5-37 33-52 76-52 45 0 72 20 72 64v82c-1 20 7 32 28 27v20c-31 9-61-2-59-35zM48-53c0 20 12 33 32 33 41-3 63-29 60-74-43 2-92-5-92 41" id="df"/><path d="M106-169C34-169 62-67 57 0H25v-261h32l-1 103c12-21 28-36 61-36 89 0 53 116 60 194h-32v-121c2-32-8-49-39-48" id="dg"/><g id="S"><use transform="matrix(0.05,0,0,0.05,0,0)" xlink:href="#cS"/><use transform="matrix(0.05,0,0,0.05,12,0)" xlink:href="#cT"/><use transform="matrix(0.05,0,0,0.05,21,0)" xlink:href="#cT"/><use transform="matrix(0.05,0,0,0.05,30,0)" xlink:href="#cU"/><use transform="matrix(0.05,0,0,0.05,40,0)" xlink:href="#cV"/><use transform="matrix(0.05,0,0,0.05,50,0)" xlink:href="#cW"/><use transform="matrix(0.05,0,0,0.05,60,0)" xlink:href="#cX"/><use transform="matrix(0.05,0,0,0.05,65,0)" xlink:href="#de"/><use transform="matrix(0.05,0,0,0.05,81.60000000000001,0)" xlink:href="#db"/><use transform="matrix(0.05,0,0,0.05,91.60000000000001,0)" xlink:href="#df"/><use transform="matrix(0.05,0,0,0.05,101.60000000000001,0)" xlink:href="#cX"/><use transform="matrix(0.05,0,0,0.05,106.60000000000001,0)" xlink:href="#dg"/><use transform="matrix(0.05,0,0,0.05,116.60000000000001,0)" xlink:href="#db"/><use transform="matrix(0.05,0,0,0.05,126.60000000000001,0)" xlink:href="#dc"/><use transform="matrix(0.05,0,0,0.05,132.55,0)" xlink:href="#da"/><use transform="matrix(0.05,0,0,0.05,144.55,0)" xlink:href="#db"/><use transform="matrix(0.05,0,0,0.05,154.55,0)" xlink:href="#dc"/><use transform="matrix(0.05,0,0,0.05,160.5,0)" xlink:href="#dd"/><use transform="matrix(0.05,0,0,0.05,169.5,0)" xlink:href="#cY"/><use transform="matrix(0.05,0,0,0.05,173.45,0)" xlink:href="#cT"/><use transform="matrix(0.05,0,0,0.05,182.45,0)" xlink:href="#db"/></g><path fill="#333" d="M-5 72V49h209v23H-5" id="dh"/><path fill="#333" d="M266 0h-40l-56-210L115 0H75L2-248h35L96-30l15-64 43-154h32l59 218 59-218h35" id="di"/><g id="T"><use transform="matrix(0.05,0,0,0.05,0,0)" xlink:href="#bW"/><use transform="matrix(0.05,0,0,0.05,5,0)" xlink:href="#br"/><use transform="matrix(0.05,0,0,0.05,10.95,0)" xlink:href="#bK"/><use transform="matrix(0.05,0,0,0.05,20.95,0)" xlink:href="#cI"/><use transform="matrix(0.05,0,0,0.05,35.9,0)" xlink:href="#cG"/><use transform="matrix(0.05,0,0,0.05,46.2,0)" xlink:href="#br"/><use transform="matrix(0.05,0,0,0.05,52.150000000000006,0)" xlink:href="#bX"/><use transform="matrix(0.05,0,0,0.05,56.1,0)" xlink:href="#cc"/><use transform="matrix(0.05,0,0,0.05,66.10000000000001,0)" xlink:href="#cc"/><use transform="matrix(0.05,0,0,0.05,76.10000000000001,0)" xlink:href="#bJ"/><use transform="matrix(0.05,0,0,0.05,86.10000000000001,0)" xlink:href="#br"/><use transform="matrix(0.05,0,0,0.05,92.05000000000001,0)" xlink:href="#dh"/><use transform="matrix(0.05,0,0,0.05,102.05000000000001,0)" xlink:href="#cc"/><use transform="matrix(0.05,0,0,0.05,112.05000000000001,0)" xlink:href="#bJ"/><use transform="matrix(0.05,0,0,0.05,122.05000000000001,0)" xlink:href="#bq"/><use transform="matrix(0.05,0,0,0.05,127.05000000000001,0)" xlink:href="#di"/><use transform="matrix(0.05,0,0,0.05,143.65,0)" xlink:href="#bJ"/><use transform="matrix(0.05,0,0,0.05,153.65,0)" xlink:href="#bn"/><use transform="matrix(0.05,0,0,0.05,163.65,0)" xlink:href="#bq"/><use transform="matrix(0.05,0,0,0.05,168.65,0)" xlink:href="#ca"/><use transform="matrix(0.05,0,0,0.05,178.65,0)" xlink:href="#bJ"/><use transform="matrix(0.05,0,0,0.05,188.65,0)" xlink:href="#br"/><use transform="matrix(0.05,0,0,0.05,194.6,0)" xlink:href="#cj"/><use transform="matrix(0.05,0,0,0.05,200.54999999999998,0)" xlink:href="#ck"/><use transform="matrix(0.05,0,0,0.05,206.49999999999997,0)" xlink:href="#bO"/></g><g id="U"><use transform="matrix(0.05,0,0,0.05,0,0)" xlink:href="#bn"/><use transform="matrix(0.05,0,0,0.05,10,0)" xlink:href="#bp"/><use transform="matrix(0.05,0,0,0.05,19,0)" xlink:href="#cp"/><use transform="matrix(0.05,0,0,0.05,28,0)" xlink:href="#cb"/><use transform="matrix(0.05,0,0,0.05,38,0)" xlink:href="#bs"/><use transform="matrix(0.05,0,0,0.05,47,0)" xlink:href="#dh"/><use transform="matrix(0.05,0,0,0.05,57,0)" xlink:href="#cc"/><use transform="matrix(0.05,0,0,0.05,67,0)" xlink:href="#bJ"/><use transform="matrix(0.05,0,0,0.05,77,0)" xlink:href="#bq"/><use transform="matrix(0.05,0,0,0.05,82,0)" xlink:href="#di"/><use transform="matrix(0.05,0,0,0.05,98.60000000000001,0)" xlink:href="#bJ"/><use transform="matrix(0.05,0,0,0.05,108.60000000000001,0)" xlink:href="#bn"/><use transform="matrix(0.05,0,0,0.05,118.60000000000001,0)" xlink:href="#bq"/><use transform="matrix(0.05,0,0,0.05,123.60000000000001,0)" xlink:href="#ca"/><use transform="matrix(0.05,0,0,0.05,133.60000000000002,0)" xlink:href="#bJ"/><use transform="matrix(0.05,0,0,0.05,143.60000000000002,0)" xlink:href="#br"/><use transform="matrix(0.05,0,0,0.05,149.55,0)" xlink:href="#cj"/><use transform="matrix(0.05,0,0,0.05,155.5,0)" xlink:href="#ck"/><use transform="matrix(0.05,0,0,0.05,161.45,0)" xlink:href="#bO"/></g><path fill="#333" d="M198-261c85 0 136 45 136 128 0 61-22 111-78 115-29 2-39-18-37-44-12 23-32 44-66 44-41 0-58-28-58-68 0-60 30-105 88-108 29-1 43 15 54 32l7-28h28c-9 45-23 84-27 134-1 11 6 17 14 16 39-4 51-48 51-92 0-69-42-107-112-107-93 0-145 59-145 153C53-15 94 26 168 27c43 0 78-13 106-28l9 19c-30 18-67 32-115 32C79 50 28-1 28-86c0-107 62-175 170-175zM158-41c46 0 70-43 70-90 0-26-17-40-43-40-44 0-59 41-61 85-1 26 9 45 34 45" id="dj"/><g id="V"><use transform="matrix(0.05,0,0,0.05,0,0)" xlink:href="#dj"/><use transform="matrix(0.05,0,0,0.05,18.25,0)" xlink:href="#bW"/><use transform="matrix(0.05,0,0,0.05,23.25,0)" xlink:href="#ch"/><use transform="matrix(0.05,0,0,0.05,33.25,0)" xlink:href="#bq"/><use transform="matrix(0.05,0,0,0.05,38.25,0)" xlink:href="#ch"/><use transform="matrix(0.05,0,0,0.05,48.25,0)" xlink:href="#br"/><use transform="matrix(0.05,0,0,0.05,54.2,0)" xlink:href="#bJ"/></g><g id="W"><use transform="matrix(0.05,0,0,0.05,0,0)" xlink:href="#de"/><use transform="matrix(0.05,0,0,0.05,16.599999999999998,0)" xlink:href="#db"/><use transform="matrix(0.05,0,0,0.05,26.599999999999994,0)" xlink:href="#df"/><use transform="matrix(0.05,0,0,0.05,36.599999999999994,0)" xlink:href="#cX"/><use transform="matrix(0.05,0,0,0.05,41.599999999999994,0)" xlink:href="#dg"/><use transform="matrix(0.05,0,0,0.05,51.599999999999994,0)" xlink:href="#db"/><use transform="matrix(0.05,0,0,0.05,61.599999999999994,0)" xlink:href="#dc"/><use transform="matrix(0.05,0,0,0.05,67.55,0)" xlink:href="#da"/><use transform="matrix(0.05,0,0,0.05,79.55,0)" xlink:href="#db"/><use transform="matrix(0.05,0,0,0.05,89.55,0)" xlink:href="#dc"/><use transform="matrix(0.05,0,0,0.05,95.5,0)" xlink:href="#dd"/><use transform="matrix(0.05,0,0,0.05,104.5,0)" xlink:href="#cY"/><use transform="matrix(0.05,0,0,0.05,108.45,0)" xlink:href="#cT"/><use transform="matrix(0.05,0,0,0.05,117.45,0)" xlink:href="#db"/></g><g id="X"><use transform="matrix(0.05,0,0,0.05,0,0)" xlink:href="#cc"/><use transform="matrix(0.05,0,0,0.05,10,0)" xlink:href="#bJ"/><use transform="matrix(0.05,0,0,0.05,20,0)" xlink:href="#bq"/><use transform="matrix(0.05,0,0,0.05,25,0)" xlink:href="#di"/><use transform="matrix(0.05,0,0,0.05,41.599999999999994,0)" xlink:href="#bJ"/><use transform="matrix(0.05,0,0,0.05,51.599999999999994,0)" xlink:href="#bn"/><use transform="matrix(0.05,0,0,0.05,61.599999999999994,0)" xlink:href="#bq"/><use transform="matrix(0.05,0,0,0.05,66.6,0)" xlink:href="#ca"/><use transform="matrix(0.05,0,0,0.05,76.6,0)" xlink:href="#bJ"/><use transform="matrix(0.05,0,0,0.05,86.6,0)" xlink:href="#br"/><use transform="matrix(0.05,0,0,0.05,92.55,0)" xlink:href="#cj"/><use transform="matrix(0.05,0,0,0.05,98.5,0)" xlink:href="#ck"/><use transform="matrix(0.05,0,0,0.05,104.45,0)" xlink:href="#bO"/></g><g id="Y"><use transform="matrix(0.05,0,0,0.05,0,0)" xlink:href="#di"/><use transform="matrix(0.05,0,0,0.05,16.599999999999998,0)" xlink:href="#bJ"/><use transform="matrix(0.05,0,0,0.05,26.599999999999994,0)" xlink:href="#bn"/><use transform="matrix(0.05,0,0,0.05,36.599999999999994,0)" xlink:href="#bq"/><use transform="matrix(0.05,0,0,0.05,41.599999999999994,0)" xlink:href="#ca"/><use transform="matrix(0.05,0,0,0.05,51.599999999999994,0)" xlink:href="#bJ"/><use transform="matrix(0.05,0,0,0.05,61.599999999999994,0)" xlink:href="#br"/><use transform="matrix(0.05,0,0,0.05,67.55,0)" xlink:href="#co"/><use transform="matrix(0.05,0,0,0.05,80.5,0)" xlink:href="#bJ"/><use transform="matrix(0.05,0,0,0.05,90.5,0)" xlink:href="#bp"/><use transform="matrix(0.05,0,0,0.05,99.5,0)" xlink:href="#bN"/><use transform="matrix(0.05,0,0,0.05,109.5,0)" xlink:href="#bK"/><use transform="matrix(0.05,0,0,0.05,119.5,0)" xlink:href="#cb"/><use transform="matrix(0.05,0,0,0.05,129.5,0)" xlink:href="#bp"/><use transform="matrix(0.05,0,0,0.05,138.5,0)" xlink:href="#bJ"/></g><g id="Z"><use transform="matrix(0.05,0,0,0.05,0,0)" xlink:href="#cG"/><use transform="matrix(0.05,0,0,0.05,10.950000000000001,0)" xlink:href="#ca"/><use transform="matrix(0.05,0,0,0.05,20.950000000000003,0)" xlink:href="#bJ"/></g><g id="aa"><use transform="matrix(0.05,0,0,0.05,0,0)" xlink:href="#cF"/><use transform="matrix(0.05,0,0,0.05,12,0)" xlink:href="#bs"/><use transform="matrix(0.05,0,0,0.05,21,0)" xlink:href="#bs"/><use transform="matrix(0.05,0,0,0.05,30,0)" xlink:href="#bK"/><use transform="matrix(0.05,0,0,0.05,40,0)" xlink:href="#ch"/><use transform="matrix(0.05,0,0,0.05,50,0)" xlink:href="#cb"/><use transform="matrix(0.05,0,0,0.05,60,0)" xlink:href="#bq"/><use transform="matrix(0.05,0,0,0.05,65,0)" xlink:href="#bZ"/><use transform="matrix(0.05,0,0,0.05,77.95,0)" xlink:href="#ca"/><use transform="matrix(0.05,0,0,0.05,87.95,0)" xlink:href="#bn"/><use transform="matrix(0.05,0,0,0.05,97.95,0)" xlink:href="#cb"/><use transform="matrix(0.05,0,0,0.05,107.95,0)" xlink:href="#cc"/><use transform="matrix(0.05,0,0,0.05,117.95,0)" xlink:href="#bJ"/><use transform="matrix(0.05,0,0,0.05,127.95,0)" xlink:href="#ce"/><use transform="matrix(0.05,0,0,0.05,139.95,0)" xlink:href="#cf"/><use transform="matrix(0.05,0,0,0.05,148.95,0)" xlink:href="#bJ"/><use transform="matrix(0.05,0,0,0.05,158.95,0)" xlink:href="#cb"/><use transform="matrix(0.05,0,0,0.05,168.95,0)" xlink:href="#bq"/><use transform="matrix(0.05,0,0,0.05,173.95,0)" xlink:href="#cG"/><use transform="matrix(0.05,0,0,0.05,184.24999999999997,0)" xlink:href="#br"/><use transform="matrix(0.05,0,0,0.05,190.19999999999996,0)" xlink:href="#bX"/><use transform="matrix(0.05,0,0,0.05,194.14999999999995,0)" xlink:href="#cc"/><use transform="matrix(0.05,0,0,0.05,204.14999999999995,0)" xlink:href="#cc"/><use transform="matrix(0.05,0,0,0.05,214.14999999999998,0)" xlink:href="#bJ"/><use transform="matrix(0.05,0,0,0.05,224.14999999999998,0)" xlink:href="#br"/></g><g id="ab"><use transform="matrix(0.05,0,0,0.05,0,0)" xlink:href="#bn"/><use transform="matrix(0.05,0,0,0.05,10,0)" xlink:href="#cb"/><use transform="matrix(0.05,0,0,0.05,20,0)" xlink:href="#bL"/></g><g id="ac"><use transform="matrix(0.05,0,0,0.05,0,0)" xlink:href="#cF"/><use transform="matrix(0.05,0,0,0.05,12,0)" xlink:href="#bs"/><use transform="matrix(0.05,0,0,0.05,21,0)" xlink:href="#bs"/><use transform="matrix(0.05,0,0,0.05,30,0)" xlink:href="#bK"/><use transform="matrix(0.05,0,0,0.05,40,0)" xlink:href="#ch"/><use transform="matrix(0.05,0,0,0.05,50,0)" xlink:href="#cb"/><use transform="matrix(0.05,0,0,0.05,60,0)" xlink:href="#bq"/><use transform="matrix(0.05,0,0,0.05,65,0)" xlink:href="#dh"/><use transform="matrix(0.05,0,0,0.05,75,0)" xlink:href="#cF"/><use transform="matrix(0.05,0,0,0.05,85.65,0)" xlink:href="#cG"/><use transform="matrix(0.05,0,0,0.05,96.60000000000001,0)" xlink:href="#cd"/></g><g id="ad"><use transform="matrix(0.05,0,0,0.05,0,0)" xlink:href="#bL"/><use transform="matrix(0.05,0,0,0.05,10,0)" xlink:href="#bK"/></g><g id="ae"><use transform="matrix(0.05,0,0,0.05,0,0)" xlink:href="#cb"/><use transform="matrix(0.05,0,0,0.05,10,0)" xlink:href="#bK"/><use transform="matrix(0.05,0,0,0.05,20,0)" xlink:href="#bq"/></g><g id="af"><use transform="matrix(0.05,0,0,0.05,0,0)" xlink:href="#ca"/><use transform="matrix(0.05,0,0,0.05,10,0)" xlink:href="#bn"/><use transform="matrix(0.05,0,0,0.05,20,0)" xlink:href="#cf"/><use transform="matrix(0.05,0,0,0.05,29,0)" xlink:href="#bJ"/></g><use transform="matrix(0.05,0,0,0.05,0,0)" xlink:href="#bn" id="ag"/><g id="ah"><use transform="matrix(0.05,0,0,0.05,0,0)" xlink:href="#bs"/><use transform="matrix(0.05,0,0,0.05,9,0)" xlink:href="#bK"/><use transform="matrix(0.05,0,0,0.05,19,0)" xlink:href="#cI"/><use transform="matrix(0.05,0,0,0.05,33.95,0)" xlink:href="#bN"/><use transform="matrix(0.05,0,0,0.05,43.95,0)" xlink:href="#bX"/><use transform="matrix(0.05,0,0,0.05,47.900000000000006,0)" xlink:href="#bY"/><use transform="matrix(0.05,0,0,0.05,51.85,0)" xlink:href="#bJ"/></g><g id="ai"><use transform="matrix(0.05,0,0,0.05,0,0)" xlink:href="#bq"/><use transform="matrix(0.05,0,0,0.05,5,0)" xlink:href="#bX"/><use transform="matrix(0.05,0,0,0.05,8.95,0)" xlink:href="#cI"/><use transform="matrix(0.05,0,0,0.05,23.9,0)" xlink:href="#bJ"/></g><path fill="#333" d="M143 0L79-87 56-68V0H24v-261h32v163l83-92h37l-77 82L181 0h-38" id="dk"/><g id="aj"><use transform="matrix(0.05,0,0,0.05,0,0)" xlink:href="#bY"/><use transform="matrix(0.05,0,0,0.05,3.95,0)" xlink:href="#bX"/><use transform="matrix(0.05,0,0,0.05,7.9,0)" xlink:href="#cb"/><use transform="matrix(0.05,0,0,0.05,17.9,0)" xlink:href="#dk"/></g><g id="ak"><use transform="matrix(0.05,0,0,0.05,0,0)" xlink:href="#bq"/><use transform="matrix(0.05,0,0,0.05,5,0)" xlink:href="#bK"/></g><g id="al"><use transform="matrix(0.05,0,0,0.05,0,0)" xlink:href="#bJ"/><use transform="matrix(0.05,0,0,0.05,10,0)" xlink:href="#bn"/><use transform="matrix(0.05,0,0,0.05,20,0)" xlink:href="#bs"/><use transform="matrix(0.05,0,0,0.05,29,0)" xlink:href="#ca"/></g><g id="am"><use transform="matrix(0.05,0,0,0.05,0,0)" xlink:href="#bK"/><use transform="matrix(0.05,0,0,0.05,10,0)" xlink:href="#bq"/><use transform="matrix(0.05,0,0,0.05,15,0)" xlink:href="#ca"/><use transform="matrix(0.05,0,0,0.05,25,0)" xlink:href="#bJ"/><use transform="matrix(0.05,0,0,0.05,35,0)" xlink:href="#br"/><use transform="matrix(0.05,0,0,0.05,39.95,0)" xlink:href="#ci"/></g><g id="an"><use transform="matrix(0.05,0,0,0.05,0,0)" xlink:href="#cG"/><use transform="matrix(0.05,0,0,0.05,10.950000000000001,0)" xlink:href="#ca"/><use transform="matrix(0.05,0,0,0.05,20.950000000000003,0)" xlink:href="#bJ"/></g><g id="ao"><use transform="matrix(0.05,0,0,0.05,0,0)" xlink:href="#bW"/><use transform="matrix(0.05,0,0,0.05,5,0)" xlink:href="#bn"/><use transform="matrix(0.05,0,0,0.05,15,0)" xlink:href="#bs"/><use transform="matrix(0.05,0,0,0.05,24,0)" xlink:href="#bq"/><use transform="matrix(0.05,0,0,0.05,29,0)" xlink:href="#bK"/><use transform="matrix(0.05,0,0,0.05,39,0)" xlink:href="#br"/><use transform="matrix(0.05,0,0,0.05,44.95,0)" xlink:href="#cp"/></g><path fill="#333" d="M206 0h-36l-40-164L89 0H53L-1-190h32L70-26l43-164h34l41 164 42-164h31" id="dl"/><g id="ap"><use transform="matrix(0.05,0,0,0.05,0,0)" xlink:href="#dl"/><use transform="matrix(0.05,0,0,0.05,12.950000000000001,0)" xlink:href="#bX"/><use transform="matrix(0.05,0,0,0.05,16.900000000000002,0)" xlink:href="#bY"/><use transform="matrix(0.05,0,0,0.05,20.85,0)" xlink:href="#bY"/></g><g id="aq"><use transform="matrix(0.05,0,0,0.05,0,0)" xlink:href="#bs"/><use transform="matrix(0.05,0,0,0.05,9,0)" xlink:href="#bn"/><use transform="matrix(0.05,0,0,0.05,19,0)" xlink:href="#bY"/><use transform="matrix(0.05,0,0,0.05,22.95,0)" xlink:href="#bY"/></g><g id="ar"><use transform="matrix(0.05,0,0,0.05,0,0)" xlink:href="#bn"/><use transform="matrix(0.05,0,0,0.05,10,0)" xlink:href="#cb"/></g><g id="as"><use transform="matrix(0.05,0,0,0.05,0,0)" xlink:href="#bX"/><use transform="matrix(0.05,0,0,0.05,3.95,0)" xlink:href="#cb"/><use transform="matrix(0.05,0,0,0.05,13.949999999999998,0)" xlink:href="#bp"/><use transform="matrix(0.05,0,0,0.05,22.95,0)" xlink:href="#bq"/><use transform="matrix(0.05,0,0,0.05,27.950000000000003,0)" xlink:href="#bn"/><use transform="matrix(0.05,0,0,0.05,37.95,0)" xlink:href="#cb"/><use transform="matrix(0.05,0,0,0.05,47.95,0)" xlink:href="#bs"/><use transform="matrix(0.05,0,0,0.05,56.95,0)" xlink:href="#bJ"/></g><g id="at"><use transform="matrix(0.05,0,0,0.05,0,0)" xlink:href="#bK"/><use transform="matrix(0.05,0,0,0.05,10,0)" xlink:href="#bW"/></g><g id="au"><use transform="matrix(0.05,0,0,0.05,0,0)" xlink:href="#bq"/><use transform="matrix(0.05,0,0,0.05,5,0)" xlink:href="#ca"/><use transform="matrix(0.05,0,0,0.05,15,0)" xlink:href="#bJ"/></g><g id="av"><use transform="matrix(0.05,0,0,0.05,0,0)" xlink:href="#bo"/><use transform="matrix(0.05,0,0,0.05,10,0)" xlink:href="#bn"/><use transform="matrix(0.05,0,0,0.05,20,0)" xlink:href="#bp"/><use transform="matrix(0.05,0,0,0.05,29,0)" xlink:href="#bJ"/><use transform="matrix(0.05,0,0,0.05,39,0)" xlink:href="#bL"/></g><g id="aw"><use transform="matrix(0.05,0,0,0.05,0,0)" xlink:href="#bK"/><use transform="matrix(0.05,0,0,0.05,10,0)" xlink:href="#cb"/></g><g id="ax"><use transform="matrix(0.05,0,0,0.05,0,0)" xlink:href="#bq"/><use transform="matrix(0.05,0,0,0.05,5,0)" xlink:href="#cp"/><use transform="matrix(0.05,0,0,0.05,14,0)" xlink:href="#bN"/><use transform="matrix(0.05,0,0,0.05,24,0)" xlink:href="#bJ"/></g><g id="ay"><use transform="matrix(0.05,0,0,0.05,0,0)" xlink:href="#bp"/><use transform="matrix(0.05,0,0,0.05,9,0)" xlink:href="#bJ"/><use transform="matrix(0.05,0,0,0.05,19,0)" xlink:href="#cb"/><use transform="matrix(0.05,0,0,0.05,29,0)" xlink:href="#bq"/></g><g id="az"><use transform="matrix(0.05,0,0,0.05,0,0)" xlink:href="#bq"/><use transform="matrix(0.05,0,0,0.05,5,0)" xlink:href="#bK"/></g><g id="aA"><use transform="matrix(0.05,0,0,0.05,0,0)" xlink:href="#bq"/><use transform="matrix(0.05,0,0,0.05,5,0)" xlink:href="#ca"/><use transform="matrix(0.05,0,0,0.05,15,0)" xlink:href="#bJ"/></g><g id="aB"><use transform="matrix(0.05,0,0,0.05,0,0)" xlink:href="#bW"/><use transform="matrix(0.05,0,0,0.05,5,0)" xlink:href="#bn"/><use transform="matrix(0.05,0,0,0.05,15,0)" xlink:href="#bs"/><use transform="matrix(0.05,0,0,0.05,24,0)" xlink:href="#bq"/><use transform="matrix(0.05,0,0,0.05,29,0)" xlink:href="#bK"/><use transform="matrix(0.05,0,0,0.05,39,0)" xlink:href="#br"/><use transform="matrix(0.05,0,0,0.05,44.95,0)" xlink:href="#cp"/><use transform="matrix(0.05,0,0,0.05,52.6,0)" xlink:href="#ci"/></g></defs></g></svg>